<svg xmlns="http://www.w3.org/2000/svg" width="1024" height="1024"><path fill="#05263C" d="M634 75c8.938-.299 16.625 6.927 22.938 12.777 11.85 12.772 18.78 31.618 18.203 48.871L675 139c26.444-5.27 45.945-16.808 62-39 1.938.813 1.938.813 4 2 6.495 19.484-2.397 46.478-10.85 64.102-3.004 5.957-6.572 11.028-11.15 15.898-.842.897-1.684 1.794-2.55 2.719-3.951 4.073-7.537 7.424-12.45 10.281l.73 3.086a2483.03 2483.03 0 0 1 4.779 20.532c9.594 42.201 23.281 81.57 40.644 121.2 17.49 40.026 32.64 80.558 39.722 123.807l.333 2.032c1.056 6.517 1.91 12.727 1.792 19.343 10.156-8.017 15.332-16.018 17-29 2.098-25.612-8.022-49.15-18.205-72.08-10.178-22.927-20.687-47.759-12.732-73.108 6.513-16.583 18.56-29.352 34.854-36.673 7.022-2.852 14.073-5.29 21.708-5.264l2.29-.008C839 269 839 269 842 270c.512 4.137.19 5.722-2.195 9.227a253.328 253.328 0 0 1-2.93 3.398c-9.63 11.636-15.717 24.729-15.215 40.121 1.897 18.161 10.822 32.487 20.92 47.235 2.227 3.257 4.423 6.534 6.62 9.812.425.635.85 1.27 1.29 1.924 24.954 37.326 36.049 74.58 27.701 119.47-7.512 37.595-27.9 70.85-59.832 92.717C802.657 604.316 786.043 612.498 768 618l.656 2.965C771.7 635.115 771.7 635.115 771 642c-3.72 2.48-5.591 2.25-10.036 2.247l-2.183.008c-2.42.005-4.841-.003-7.262-.012a4439.727 4439.727 0 0 1-19.33-.007c-4.921-.009-9.843-.007-14.765-.007-8.263 0-16.527-.01-24.79-.023-9.568-.016-19.136-.021-28.703-.02-9.19 0-18.38-.005-27.569-.013-3.918-.004-7.836-.006-11.753-.006-4.608-.001-9.216-.007-13.824-.017a2459.36 2459.36 0 0 0-5.088-.004c-2.305 0-4.61-.005-6.915-.012l-3.919-.005C592 644 592 644 591 643c.178-11.188 6.14-18.726 13.578-26.676C614.965 606.356 626.1 602.61 640 600l-1.54-1.398c-7.009-6.643-12.965-13.921-13.698-23.817-.311-15.59 4.16-29.566 15.05-41.16 10.064-9.312 22.7-13.741 35.875-16.625 14.447-3.217 24.789-10.058 33.125-22.563C720.72 475.48 721.442 451.717 722 430h-2l.07 1.84c.136 6.299-.559 11.93-2.07 18.035l-.669 2.725c-4.953 19.207-12.57 38.527-29.331 50.4-7.026 4.07-14.664 5.676-22.5 7.438-17.033 3.87-29.82 11.714-39.438 26.437-6.167 9.881-9.955 20.262-10.625 31.875l-.13 2.113c-.106 1.712-.207 3.425-.307 5.137-3.28 1.072-4.59 1.198-7.754-.328l-2.808-1.922-2.817-1.89A238.776 238.776 0 0 1 595 567l-.48 1.688c-1.748 5.715-4.132 10.398-7.52 15.312-4.769-.42-7.87-2.509-11-6-3.777-5.68-5.993-10.714-6.316-17.547l-.127-2.558-.12-2.645-.13-2.691c-.106-2.186-.208-4.373-.307-6.559l-1.574 3.465c-.704 1.491-1.408 2.982-2.114 4.472l-1.029 2.288c-2.663 5.55-2.663 5.55-6.053 6.779L556 563a231.01 231.01 0 0 1-2.875-3.563l-1.617-2.003c-5.243-8.462-4.884-21.044-3.105-30.598C554.364 503.059 571.805 483.933 592 471c3.246-1.923 6.54-3.735 9.875-5.5l2.34-1.24C616.44 458 616.44 458 623 458l.285-3.703c.698-6.207 2.409-12.064 4.153-18.047l1.046-3.636c4.018-13.703 8.72-27.167 13.516-40.614-5.704 8.055-10.954 16.3-15.625 25l-1.418 2.642c-2.971 5.782-4.979 11.484-6.756 17.727-3.89 13.435-3.89 13.435-8.83 16.166-3.375 1.377-6.848 2.185-10.405 2.95-8.979 2.351-17.084 9.565-23.966 15.515l-2.973 2.531c-19.153 16.664-31.291 39.946-33.34 65.344.329 10.007 3.256 21.289 9.91 28.969 2.929 2.721 5.435 4.274 9.278 5.343 5.24 1.673 7.722 5.933 10.96 10.145 4.075 5.023 8.788 8.207 15.165 9.668 4.297.296 7.378.41 11-2 1.554-2.385 1.554-2.385 2.75-5.125l1.297-2.758L600 582c2.99 1.413 5.654 3.062 8.375 4.938 2.693 1.83 5.177 3.328 8.125 4.75C619 593 619 593 620 596l-2.71 1.215c-10.927 5.059-18.91 10.693-25.235 21.18-5.611 9.148-5.611 9.148-10.043 10.55-3.545-.22-6.6-.962-10.012-1.945l-3.727-.738c-10.254-2.036-20.156-5.351-30.07-8.62-1.036-.34-2.07-.681-3.137-1.033l-2.814-.938c-2.18-.766-2.18-.766-4.252-.671l1.094 3.113c5.372 15.83 5.372 15.83 3.906 23.887-2 2-2 2-4.49 2.249l-3.204-.002-3.671.013-4.05-.017a2967.819 2967.819 0 0 1-15.8-.007c-4.024-.009-8.048-.007-12.073-.007-6.759 0-13.517-.01-20.276-.023-7.822-.016-15.644-.021-23.466-.02-7.515 0-15.03-.005-22.544-.013-3.202-.004-6.405-.006-9.607-.006-3.77-.001-7.539-.007-11.308-.017-1.386-.003-2.771-.004-4.157-.004-1.887 0-3.774-.006-5.66-.012l-3.205-.005C387 644 387 644 385 643c.56-3.99 1.757-6.526 4.063-9.813l1.66-2.394L392 629c-3.11 1.438-5.724 3.162-8.438 5.25l-2.246 1.703c-2.516 2.026-2.516 2.026-4.304 5.254-1.854 2.293-2.784 2.751-5.734 3.29-3.362.13-6.667.075-10.028-.06l-3.52-.056c-8.534-.185-8.534-.185-9.73-1.381.201-9.654 6.857-16.394 13.412-22.902 16.9-15.983 39.104-22.8 61.588-26.098-.752-.565-1.503-1.13-2.277-1.71-7.687-6.463-12.86-16.448-14.723-26.29-1.097-16.815 2.011-30.213 13.031-43.438 8.356-8.96 18.987-15.363 31.344-16.187l3.21-.227L456 506l-.105-3.453c-.221-10.795.644-21.003 2.449-31.645.711-3.571.711-3.571.656-5.902-.662 1.607-1.323 3.216-1.979 4.826a635.645 635.645 0 0 1-1.695 4.123c-1.564 3.845-2.626 7.383-3.326 11.488-1.322 4.627-4.231 6.574-8.25 8.875-7.226 3.86-14.892 6.439-22.75 8.688l-1.803.54c-27.849 5.833-62.943-2.06-89.1-11.224l-2.436-.851a171.597 171.597 0 0 1-4.49-1.674c-8.733-3.192-17.136-.474-25.874 1.713l-6.16 1.494c-3.192.78-6.382 1.563-9.57 2.357-28.322 7.03-28.322 7.03-37.005 3.082L242 496l-1.468-1.38c-4.858-5.038-5.873-9.964-7.22-16.683-1.59-7.371-1.59-7.371-5.785-13.39-2.751-1.406-2.751-1.406-5.648-2.414-5.247-2.065-8.941-6.202-12.879-10.133l-1.781-1.746c-10.054-10.695-12.934-26.493-12.555-40.68.86-9.145 4.283-15.744 10.64-22.344 4.726-3.91 9.972-6.142 15.696-8.23l2.188-.805c6.795-2.067 15.366-2.542 22 .243C248 380 248 380 249 381c.75 6.004-.146 9.406-3.672 14.293-3.815 4.436-7.988 8.517-12.21 12.567l-1.95 1.882-1.773 1.683c-1.634 1.637-1.634 1.637-2.395 4.575l3.563-1.5c7.832-2.59 17.62-3.272 25.25.25 3.103 2.19 3.84 2.916 5.187 6.25.576 4.418-.174 6.746-2.699 10.373-2.384 2.982-5.205 5.47-8.051 8.002l-1.824 1.652A919.179 919.179 0 0 1 244 445l2.371 1.973c3.343 3.345 3.892 6.93 4.691 11.464 1.046 5.73 2.203 9.881 5.938 14.563 5.342 3.561 11.82 2.33 17.938 1.209 1.737-.362 3.47-.734 5.203-1.115l2.872-.607c3.081-.653 6.159-1.32 9.237-1.987 2.159-.46 4.318-.92 6.478-1.378 4.36-.928 8.721-1.86 13.08-2.797 5.508-1.181 11.02-2.342 16.536-3.49a3302.703 3302.703 0 0 0 47.626-10.27 3938.87 3938.87 0 0 1 33.957-7.437l5.251-1.128a2531.569 2531.569 0 0 1 30.799-6.43l8.847-1.803c2.8-.567 5.604-1.12 8.407-1.673l5.156-1.051 2.336-.447c5.302-1.104 11.313-2.602 14.453-7.388 3.123-8.365.232-18.727-1.59-27.118l-.764-3.656c-.805-3.834-1.626-7.665-2.447-11.497-.528-2.51-1.056-5.021-1.582-7.533a3098.84 3098.84 0 0 0-8.814-40.497c-5.383-24.019-5.383-24.019-3.979-28.907 7.129 1.86 13.946 4.472 19 10 3.953 8.453 5.093 17.948 6.402 27.115.778 5.057 1.881 10 3.03 14.986C495 361 495 361 495 365h2l.755-1.743c1.424-2.581 3.06-4.3 5.16-6.366l2.304-2.286 2.406-2.355 2.43-2.402c1.977-1.954 3.959-3.903 5.945-5.848l-2.184-2.105c-2.872-2.877-5.408-5.984-7.879-9.207l-1.323-1.727C497 320.85 497 320.85 497 315l3.18.875c11.428 2.843 22.48 3.523 34.195 3.5l2.176.004c12.86-.003 25.386-1.228 37.824-4.629l2.417-.653C596.474 308.628 617.916 300.451 630 283c3.554-6.188 3.554-6.188 5-13l-1.629 2.18c-19.511 23.207-55.876 33.805-84.974 36.661-15.089 1-30.483.734-45.397-1.841l-2.102-.358c-13.6-2.43-28.574-6.914-37.418-18.216-3.808-6.24-5.969-13.14-6.48-20.426l-.227-2.777c-.527-10.999 4.157-17.072 10.579-25.57 3.937-6.335 5.109-12.717 5.96-20.028 2.442-17.998 8.607-35.279 20.375-49.313 2.771-3.583 2.771-3.583 3.145-7.917a151.668 151.668 0 0 0-1.867-5.774c-4.403-16.525-.346-34.588 7.696-49.261C508.417 97.507 516.419 88.718 527 84l3 1c-.01.68-.02 1.36-.032 2.06-.042 3.126-.067 6.252-.093 9.377l-.05 3.24c-.05 7.944.303 15.608 4.237 22.698 1.23 2.256 2.116 4.159 2.938 6.625l3.191-.988c16.673-5.083 32.828-8.214 50.309-8.262l3.76-.012c8.242.052 15.838.748 23.834 2.703 2.847.548 4.283.736 6.906-.441 7.347-7.218 9.011-19.521 9.246-29.309.043-5.9-.056-11.794-.246-17.691Z"/><path fill="#06253B" d="M410 116c3.22 2.906 3.79 6.402 4.691 10.543l.443 1.999c.486 2.213.958 4.429 1.428 6.645l1.035 4.757c3.402 15.708 6.576 31.464 9.763 47.216 2.268 11.198 4.59 22.376 7.077 33.528 3.732 16.74 7.102 33.553 10.48 50.367a1714.39 1714.39 0 0 0 7.77 36.575c2.75 12.273 5.375 24.573 7.99 36.876.821 3.86 1.644 7.72 2.468 11.58a9192.515 9192.515 0 0 1 4.038 19.064c.7 3.298 1.41 6.595 2.124 9.89.43 1.993.857 3.986 1.282 5.98.529 2.48 1.065 4.959 1.608 7.436 1.33 6.287 2.477 12.12 1.803 18.544-2.598 3.926-5.49 4.713-9.977 5.676l-3.668.809-3.98.827-4.154.9c-4.402.952-8.81 1.872-13.221 2.788l-4.336.904a4737.785 4737.785 0 0 1-19.35 3.984c-11.434 2.33-22.842 4.775-34.248 7.236-7.434 1.603-14.871 3.193-22.308 4.785l-13.66 2.927-2.657.57c-6.226 1.333-12.451 2.669-18.677 4.006-3.28.703-6.561 1.403-9.842 2.104-4.482.957-8.96 1.928-13.437 2.907-3.025.661-6.051 1.316-9.077 1.97-1.462.317-2.923.637-4.383.96-2.034.449-4.07.889-6.107 1.327l-3.538.773c-9.08 1.47-9.08 1.47-12.708-1.105-1.877-2.635-2.654-4.776-3.422-7.91l-.734-2.88C260 448 260 448 260 445l2.188-1.563c4.891-4.24 8.428-11.427 9.05-17.925.16-6.079.022-9.815-4.238-14.512-3.722-3.58-7.53-6.401-12-9 .36-.655.722-1.31 1.094-1.984 3.632-7.144 4.96-13.024 3.906-21.016-1.629-4.977-4.546-8.276-9-11l-2.164-.613c-2.744-.78-4.58-1.623-6.836-3.387-2.164-4.46-2.921-9.22-3.813-14.063-.308-1.51-.62-3.019-.935-4.527-.712-3.452-1.399-6.908-2.07-10.368-1.33-6.844-2.735-13.673-4.139-20.503a6251.956 6251.956 0 0 1-5.387-26.51c-2.88-14.337-5.904-28.64-8.99-42.933-.943-4.383-1.87-8.77-2.791-13.159l-.476-2.265-.929-4.43a7740.34 7740.34 0 0 0-9.341-43.965l-.592-2.742L202 176l-.555-2.607c-.753-4.048-1.332-7.842.768-11.515 2.173-2.284 3.564-2.69 6.621-3.37l2.977-.688 3.228-.695 3.37-.766c2.35-.532 4.7-1.058 7.054-1.577 3.378-.747 6.75-1.514 10.122-2.29a4698.95 4698.95 0 0 1 19.79-4.492l6.633-1.5a9513.78 9513.78 0 0 1 36.752-8.225c10.475-2.325 20.945-4.67 31.415-7.02 4.96-1.114 9.921-2.225 14.883-3.334 15.402-3.44 15.402-3.44 30.787-6.96 3.355-.776 6.712-1.544 10.069-2.312 1.497-.345 2.993-.694 4.488-1.049 2.024-.479 4.05-.943 6.078-1.405l3.341-.78c3.703-.483 6.555-.326 10.179.585Z"/><path fill="#042137" d="m536.954 824.763 5.692-.001h2.85a4327809.095 4327809.095 0 0 0 17.134-.003c31.014-.003 62.028-.02 93.042-.042a141446.04 141446.04 0 0 1 110.492-.04h2.708c14.303-.002 28.606-.013 42.91-.027 14.267-.015 28.534-.018 42.8-.01 8.453.004 16.906 0 25.359-.015 5.64-.01 11.282-.009 16.922.001 3.211.006 6.421.005 9.632-.006 3.46-.011 6.918-.004 10.378.008l3.002-.023c7.515.057 15.29 1.034 21.562 5.52 5.661 6.35 6.023 14.129 5.997 22.316l.015 2.931c.007 2.031.006 4.062-.003 6.094-.008 3.092.02 6.182.052 9.274.002 1.984.001 3.968-.002 5.951l.034 2.773c-.064 5.995-1.14 10.525-4.53 15.536-4.346 4.234-8.76 6.248-14.828 6.255l-2.884.018-3.151-.011-3.376.012c-3.762.01-7.523.008-11.284.004-2.715.004-5.43.011-8.145.018-5.921.013-11.842.019-17.763.02-8.813.001-17.626.014-26.44.03-14.865.024-29.73.04-44.596.05a69615.665 69615.665 0 0 0-61.408.069c-33.44.046-66.881.082-100.322.113-32.09.03-64.179.064-96.268.105l-2.962.003-26.555.034a749565.44 749565.44 0 0 1-157.72.185c-17.943.02-35.887.036-53.831.042a155575.913 155575.913 0 0 0-25.05.01c-22.295.008-44.589.058-66.884.155-15.164.065-30.329.116-45.494.157-9.914.027-19.828.07-29.743.134-6.697.041-13.394.064-20.09.074-3.86.006-7.717.02-11.576.056-4.189.04-8.378.04-12.567.037l-3.689.054c-7.08-.045-11.937-.896-17.374-5.624-1.84-2.098-1.84-2.098-2.938-4.062l-1.152-1.973c-1.622-3.502-2.038-6.71-2.071-10.547l-.03-2.73-.012-2.93-.017-3.034c-.01-2.116-.016-4.233-.02-6.35-.01-3.23-.041-6.46-.073-9.69a4733.64 4733.64 0 0 1-.015-6.176l-.038-2.917c.018-5.298.39-9.012 3.366-13.591 1.902-1.863 1.902-1.863 3.937-3.312l2.028-1.489c3.523-2.076 6.816-2.326 10.853-2.356l2.975-.028 3.285-.016 3.53-.03c3.295-.025 6.588-.045 9.882-.064 2.912-.017 5.823-.038 8.735-.058 10.114-.07 20.229-.125 30.344-.179l8.291-.046c89.363-.503 178.728-.576 377.094-.66Z"/><path fill="#06253B" d="M432.29 79.61c9.506 7.727 11.295 19.374 13.527 30.75a1943.7 1943.7 0 0 0 2.288 11.41l.476 2.35c1.54 7.571 3.247 15.1 4.981 22.63 2.707 11.782 5.174 23.594 7.485 35.458 1.41 7.238 1.41 7.238 3.133 14.405 1.7 7.021-.7 13.642-2.512 20.45-.583 2.564-.793 4.763-.856 7.375-.51 6.586-5.198 12.236-8.812 17.562-2.181-3.272-2.689-5.507-3.478-9.338l-.404-1.93c-.44-2.11-.87-4.222-1.302-6.334a5010.7 5010.7 0 0 0-.929-4.467c-.645-3.1-1.288-6.201-1.928-9.303-1.33-6.431-2.694-12.855-4.057-19.28a1793238.057 1793238.057 0 0 0-4.852-22.926c-1.727-8.17-3.462-16.34-5.212-24.505a3552.49 3552.49 0 0 1-1.676-7.869c-.795-3.739-1.6-7.476-2.408-11.212l-.71-3.37c-1.683-9.135-1.683-9.135-7.29-16.093-9.756-4.864-23.424-.05-33.512 2.283a3081.182 3081.182 0 0 0-18.643 4.222c-4.453 1.017-8.909 2.018-13.365 3.02a10466.624 10466.624 0 0 0-40.684 9.27l-8.94 2.05-2.18.5c-12.879 2.95-25.781 5.778-38.697 8.558-24.14 5.204-24.14 5.204-48.207 10.73a692.75 692.75 0 0 1-4.117.96c-10.799 2.433-10.799 2.433-19.284 9.159-2.895 7.398-.804 15.824.844 23.334l.635 3.016c.694 3.28 1.403 6.557 2.11 9.834a7866.008 7866.008 0 0 0 5.422 25.4c1.307 6.083 2.602 12.168 3.897 18.254 1.526 7.163 3.052 14.326 4.583 21.489 6.086 28.469 12.075 56.959 17.908 85.48.57 2.785 1.143 5.568 1.716 8.351l1.108 5.408.51 2.477C230 364.77 230 364.77 230 367c-2.395.648-4.791 1.293-7.188 1.938l-2.04.552c-3.575.96-7.14 1.805-10.772 2.51-5.724-25.993-11.432-51.987-16.898-78.035l-.502-2.39-.508-2.419-1.03-4.906-.516-2.463a3798.441 3798.441 0 0 0-7.833-36.394 3323.413 3323.413 0 0 1-4.87-22.49l-.563-2.649c-1.527-7.17-1.527-7.17-2.286-10.744-2.037-9.58-4.116-19.148-6.346-28.686l-.569-2.443c-.885-3.792-1.78-7.582-2.692-11.369-2.27-9.555-4.23-17.967.613-27.012 5.323-6.506 11.954-9.362 19.984-11.078l2.305-.522c2.484-.56 4.973-1.105 7.461-1.65 1.75-.392 3.5-.785 5.25-1.18 3.587-.806 7.175-1.607 10.764-2.403 4.838-1.075 9.671-2.174 14.502-3.284l2.248-.517 4.393-1.01c8.5-1.954 17.006-3.888 25.516-5.802a9570.666 9570.666 0 0 0 45.686-10.402c.918-.21 1.836-.422 2.781-.64 8.536-1.965 17.07-3.932 25.606-5.899 5.641-1.3 11.284-2.6 16.926-3.898l2.742-.631c12.206-2.81 24.42-5.582 36.659-8.248 5.086-1.114 10.13-2.307 15.15-3.69 9.18-2.517 19.667-4.718 28.316.463Z"/><path fill="#0269AA" d="M638 677c55.53 0 55.53 0 66.25 10.125 6.025 9.899 6.334 19.704 6.246 30.934 0 1.637.002 3.274.005 4.91 0 3.416-.012 6.83-.034 10.245-.029 4.345-.026 8.69-.013 13.034.007 3.376-.001 6.752-.014 10.128-.004 1.6-.005 3.201 0 4.802.032 24.565.032 24.565-8.483 33.205C684.892 808.484 656.171 802 638 802V677ZM74 677h26l1.529 5.52c1.67 6.028 3.343 12.055 5.017 18.081a12027.7 12027.7 0 0 1 3.04 10.96c.977 3.528 1.956 7.055 2.937 10.582.374 1.343.746 2.687 1.117 4.031.522 1.887 1.047 3.773 1.572 5.659l.902 3.25c.825 2.715 1.788 5.303 2.886 7.917l.543-1.925c1.88-6.669 3.762-13.337 5.646-20.005l2.1-7.445c1.012-3.588 2.025-7.175 3.04-10.762l.93-3.31C133.398 692 135.67 684.497 138 677h27v125h-22v-74l-4 15a767.888 767.888 0 0 1-2.762 9.418l-.715 2.396a12059.897 12059.897 0 0 0-4.453 14.866c-.46 1.537-.92 3.074-1.382 4.61A218.536 218.536 0 0 0 127 784h-16c-5.41-16.569-10.207-33.225-15-50l-1 68H74V677Z"/><path fill="#046AAA" d="M235 680c6.234 4.106 9.855 8.837 12 16 .905 4.543 1.137 8.87 1.161 13.499l.015 2.2c.015 2.387.022 4.774.027 7.16l.009 2.487c.015 4.342.024 8.685.028 13.028.006 4.463.03 8.925.058 13.388.019 3.452.024 6.905.026 10.357.003 1.644.01 3.288.024 4.932.09 12.008-.043 23.364-8.88 32.539-9.49 8.822-21.135 8.954-33.38 8.537-8.065-.492-14.523-4.378-20.088-10.127-7.354-10.664-7.306-22.946-7.266-35.43l-.005-4.444c-.003-3.092 0-6.183.01-9.274.012-3.929.005-7.857-.007-11.786-.007-3.056-.005-6.112 0-9.168.002-1.448 0-2.895-.005-4.342-.064-25.145-.064-25.145 6.273-33.556 2.448-2.437 5.035-4.239 8-6l2.004-1.258c10.964-5.61 29.464-4.987 39.996 1.258Z"/><path fill="#0369AA" d="M556 677c52.83 0 52.83 0 62.625 9.563 6.3 8.173 7.023 17.819 6.896 27.797-.02 2.006 0 4.009.026 6.015-.043 10.743-1.082 21.37-8.547 29.625-2.75 1.813-2.75 1.813-5 3 2.498 10.286 6.135 20.17 9.688 30.125.908 2.555 1.815 5.11 2.72 7.665.561 1.58 1.123 3.16 1.687 4.738C628 800.888 628 800.888 628 802h-27l-2.809-9.336-2.69-8.926c-.625-2.071-1.248-4.143-1.871-6.216-.895-2.974-1.791-5.947-2.689-8.92l-.846-2.82-.788-2.608-.693-2.301c-.583-1.933-.583-1.933-1.614-3.873l-8-1v46h-23V677Z"/><path fill="#0269AA" d="M259 677h22c4.995 11.582 9.28 23.413 13.625 35.25l3.444 9.355a9643.876 9643.876 0 0 1 3.11 8.455l.848 2.312c1.313 3.547 2.645 7.087 3.973 10.628l1-66h22v125h-21c-4.5-10.126-4.5-10.126-6.167-14.608l-1.132-3.034-1.178-3.182-1.246-3.349c-.864-2.321-1.726-4.643-2.587-6.966a33260.972 33260.972 0 0 1-6.48-17.435l-1.19-3.201c-.366-.992-.734-1.983-1.112-3.005l-.973-2.623c-1.026-2.849-1.977-5.724-2.935-8.597l-1 66h-23V677Z"/><path fill="#046AAA" d="M889 677h34c4.641 22.44 9.23 44.884 13.505 67.396l1.725 9.07c1.152 6.057 2.302 12.114 3.449 18.171l1.39 7.335c.654 3.443 1.305 6.886 1.954 10.329l.606 3.183.548 2.916.484 2.556C947 800 947 800 947 802h-25c-2.046-8.274-3.215-15.366-4-24h-24l-1 9a238.327 238.327 0 0 1-1.5 7.5l-.781 3.656C890 801 890 801 889 802c-1.78.087-3.565.107-5.348.098l-3.271-.01-3.443-.025-3.456-.014A2762.06 2762.06 0 0 1 865 802c1.22-9.367 2.831-18.59 4.742-27.839 2.755-13.357 5.32-26.742 7.758-40.161 2.35-12.918 4.8-25.812 7.375-38.688l.459-2.303c.425-2.132.853-4.264 1.283-6.396l.738-3.663C888 680 888 680 889 677ZM741 677h34c5.786 29.253 11.515 58.514 17.063 87.813l.712 3.76 2.01 10.634.592 3.134.56 2.975.479 2.536c.875 4.714 1.726 9.431 2.584 14.148h-25l-2-10.875-.633-3.425-.492-2.692-.508-2.761C770 780 770 780 770 778h-24l-1 9a238.327 238.327 0 0 1-1.5 7.5l-.781 3.656C742 801 742 801 741 802c-1.78.087-3.565.107-5.348.098l-3.271-.01-3.443-.025-3.456-.014A2762.06 2762.06 0 0 1 717 802c1.67-10.385 3.575-20.723 5.5-31.063l.514-2.764c2.993-16.074 6.091-32.128 9.236-48.173l.63-3.223A2483.912 2483.912 0 0 1 741 677Z"/><path fill="#0469AA" d="M396.063 680.75c5.444 4.048 8.12 8.981 9.632 15.652.723 6.162.408 12.41.305 18.598h-23l-.39-9.766c-.713-3.783-1.49-5.022-4.61-7.234-2.473-.627-2.473-.627-5.063-.5l-2.597-.031c-2.457.344-2.457.344-4.121 2.261-1.382 2.574-1.652 4.175-1.656 7.082l-.06 2.458c1.202 6.61 5.248 10.84 10.122 15.168l1.595 1.425c5.533 4.898 11.327 9.49 17.19 13.985 6.875 5.589 12.096 13.24 13.59 22.152.602 12.804.614 23.775-8 34-6.628 6.515-15.82 8.35-24.84 8.468l-2.66-.03-2.785-.021c-8.133-.193-14.102-1.526-20.527-6.667-4.873-6.126-8.34-11.3-8.286-19.297l.008-2.307.027-2.896L340 764h22c.75 7.313.75 7.313.956 9.603.364 3.077.708 5.026 2.81 7.35 2.578 1.208 4.392 1.48 7.234 1.485l2.563.058c3.33-.678 4.444-1.76 6.437-4.496 1.307-5.732 1.368-11.534-1.527-16.754-5.195-6.027-11.73-10.768-18.032-15.582-10.459-8.026-20.11-16.127-22.441-29.664-.926-10.974-.098-23.097 7-32 12.843-11.809 34.527-12.177 49.063-3.25Z"/><path fill="#0369AA" d="M489 677h55v21h-31v30h28v23h-28v30h33v21h-57V677Z"/><path fill="#046AAB" d="M798 677h71v21h-23v104h-25V699h-23v-22Z"/><path fill="#F0EDE6" d="M414 232c3.31 9.823 5.881 19.392 7.526 29.645.594 3.688 1.228 7.368 1.859 11.05l.394 2.315c1.452 8.464 3.111 16.886 4.8 25.306.15.753.3 1.506.456 2.281.912 4.555 1.83 9.109 2.75 13.662.631 3.127 1.258 6.255 1.885 9.383.76 3.787 1.521 7.575 2.283 11.362l.426 2.12c1.817 9.05 1.817 9.05 3.811 18.063C441 361 441 361 441 365a5766.007 5766.007 0 0 1-12.313 3l-3.537.867-3.388.82-3.127.762C416 371 416 371 413 371c-2.272-8.714-4.176-17.468-5.926-26.3l-.818-4.098c-.57-2.858-1.14-5.717-1.707-8.575-.707-3.561-1.416-7.121-2.127-10.681a6295.528 6295.528 0 0 1-9.376-47.823c-2.094-10.89-4.354-21.743-6.682-32.585C386 239 386 239 386 237c2.54-.649 5.083-1.294 7.625-1.938l2.16-.552c6.143-1.55 11.85-2.562 18.215-2.51Z"/><path fill="#0268AA" d="M412 677h69v21h-23v104h-23V698h-23v-21Z"/><path fill="#F0EDE7" d="M407 156c2.214 4.797 3.112 9.787 4.125 14.938l.55 2.67c.9 4.51 1.666 8.768 1.325 13.392l-1 1c-4.7-.214-9.414-.965-14-2l-.645 2.363c-1.835 4.926-4.414 9.283-7.043 13.825a7532.93 7532.93 0 0 0-3.515 6.152l-1.87 3.269c-3.329 5.857-6.597 11.749-9.865 17.641l-1.86 3.348a1651.308 1651.308 0 0 0-10.04 18.346C362 253 362 253 361 254c-7.647.55-15.139-.371-22.688-1.5l-3.029-.434c-2.429-.348-4.856-.704-7.283-1.066l-1.07 3.453c-2.278 6.82-5.075 13.428-7.863 20.05-.944 2.251-1.87 4.509-2.797 6.767a3233.54 3233.54 0 0 1-1.825 4.34l-.82 2.023c-1.86 4.344-3.956 7.376-7.625 10.367-2.82.182-5.11.147-7.875-.125-5.416-.311-5.416-.311-10.48 1.383-1.774 1.81-3.2 3.663-4.645 5.742a265.532 265.532 0 0 1-3.375 3.813l-1.758 2.035c-2.755 3.176-5.567 6.298-8.398 9.406a282.794 282.794 0 0 0-5.313 6.086l-2.906 3.348-1.356 1.641c-1.316 1.495-1.316 1.495-3.894 3.671-3.462-.055-4.548-.548-7-3-.422-2.281-.422-2.281 0-5 1.984-2.656 1.984-2.656 4.75-5.5l3.04-3.184 1.602-1.651c2.615-2.708 5.176-5.465 7.733-8.228l1.521-1.637c3.19-3.458 6.214-7.01 9.166-10.675L281 291l1.793-2.273c3.95-4.575 3.95-4.575 7.43-4.997 4.439.393 8.623 1.672 12.777 3.27l.408-1.572c2.264-8.12 5.466-15.825 8.69-23.599.973-2.349 1.935-4.702 2.896-7.056.617-1.497 1.235-2.995 1.854-4.492l.868-2.127c1.182-2.833 2.091-4.961 4.284-7.154 7.854-.91 15.799.377 23.555 1.563 3.2.406 6.225.469 9.445.437l1.035-1.917c11.403-21.123 11.403-21.123 17.152-31.458l1.187-2.145a532.973 532.973 0 0 1 6.536-11.449l1.439-2.487c.914-1.577 1.84-3.148 2.78-4.71l1.23-2.139 1.109-1.874c.75-1.89.75-1.89-.271-3.96-1.261-1.96-2.492-3.179-4.322-4.611L380 174c.012-2.18.012-2.18 1-5 2.395-2.054 5.08-3.561 7.813-5.125a2528.51 2528.51 0 0 0 4.332-2.57l2.054-1.201c1.938-1.143 1.938-1.143 4.11-2.897 2.507-1.79 4.705-1.41 7.691-1.207Z"/><path fill="#F0EDE6" d="m381 281 .5 3.157c3.662 23.02 7.774 45.896 12.566 68.71l.57 2.713c.35 1.665.702 3.328 1.057 4.991A173.886 173.886 0 0 1 398 374c-9.324 3.034-18.165 5.061-28 5a610.432 610.432 0 0 1-7.418-32.41 6834.08 6834.08 0 0 1-2.81-13.892c-.803-3.989-1.611-7.976-2.421-11.963-.629-3.097-1.255-6.195-1.881-9.293-.298-1.471-.595-2.942-.894-4.412-.415-2.052-.828-4.103-1.24-6.155l-.711-3.521c-.641-3.442-1.154-6.886-1.625-10.354 4.248-1.007 8.499-2.004 12.75-3l3.656-.867 3.516-.82 3.237-.762C377 281 377 281 381 281ZM341 312c3.43 15.05 6.702 30.131 9.83 45.247.363 1.748.727 3.497 1.093 5.245a2204.5 2204.5 0 0 1 1.538 7.438l.473 2.247c.743 3.661 1.246 7.085 1.066 10.823-6.57 2-13.148 3.452-19.91 4.605l-2.367.411c-1.908.33-3.815.658-5.723.984a74158.593 74158.593 0 0 1-6.722-33.535c-.688-3.43-1.376-6.86-2.062-10.29l-1.16-5.78A997.928 997.928 0 0 1 313 318c22.107-6 22.107-6 28-6Z"/><path fill="#F2EEE6" d="M662 698c16.25 0 16.25 0 21.875 4.5 2.502 3.336 2.262 6.729 2.286 10.728l.03 3.894.012 4.214.017 4.323c.01 3.021.017 6.042.02 9.064.006 3.866.03 7.731.058 11.597.019 2.977.024 5.954.026 8.93.003 1.426.01 2.85.024 4.275.017 1.996.013 3.992.008 5.988l.011 3.438c-.517 4.29-2.123 6.926-5.304 9.799-6.01 3.642-11.86 2.25-19.063 2.25v-83Z"/><path fill="#F0EDE6" d="M311 207c-.221 13.42-2.67 24.887-12.262 34.77-10.692 8.709-22.965 11.467-36.522 10.542-8.621-1.215-16.75-6.666-22.529-12.98-3.21-4.438-5.487-9.333-7.687-14.332a874.103 874.103 0 0 1 9.75-2.625l2.79-.773 2.694-.704 2.476-.666c2.772-.28 3.967.29 6.29 1.768a320.618 320.618 0 0 1 3.438 3.125c4.637 3.544 8.797 3.624 14.5 3.32 4.504-.655 6.564-1.468 10.062-4.445 2.524-3.79 3.934-7.602 5-12 3.29-.837 6.583-1.67 9.875-2.5l2.84-.723 2.715-.683 2.507-.635C309 207 309 207 311 207Z"/><path fill="#EEECE6" d="M448 393c2 2 2 2 2.375 4.938C450 401 450 401 448.579 402.555c-3.87 2.166-7.883 2.784-12.212 3.608l-2.93.585c-2.09.416-4.18.828-6.272 1.235-4.473.871-8.941 1.766-13.41 2.66-2.288.458-4.577.915-6.867 1.37-10.15 2.024-20.272 4.17-30.388 6.361-3.372.729-6.745 1.457-10.117 2.184l-2.64.569c-7.912 1.701-15.83 3.37-23.75 5.032l-1.96.411c-7.065 1.485-14.132 2.966-21.199 4.444l-7.06 1.481-3.25.678c-4.384.92-8.745 1.862-13.08 2.998-3.386.814-5.19.976-8.444-.172-2-2-2-2-2.25-5 .25-3 .25-3 2.25-5 2.012-.629 2.012-.629 4.53-1.17l2.882-.63 3.162-.669 3.302-.716c3.602-.779 7.207-1.547 10.812-2.315l7.548-1.627a9664.796 9664.796 0 0 1 19.167-4.106c3.323-.709 6.646-1.42 9.968-2.13 10.514-2.252 21.032-4.487 31.552-6.709a4024.189 4024.189 0 0 0 19.618-4.209c4.78-1.035 9.563-2.064 14.345-3.092 2.302-.496 4.604-.996 6.904-1.499 3.201-.7 6.404-1.388 9.608-2.073l2.854-.633c5.7-1.206 10.917-1.795 16.748-1.422Z"/><path fill="#F0EDE6" d="M288.828 173.531c7.497 5.07 14.5 11.518 18.422 19.781l1.016 2.114L309 197c-7.228 2.573-14.507 4.367-22 6l-1.172-1.46c-.52-.633-1.041-1.264-1.578-1.915l-1.547-1.898c-3.661-3.712-6.96-4.042-12.078-4.102-5.405.109-8.662.412-12.625 4.375-2.872 3.84-4.906 7.324-6 12-3.103.84-6.207 1.67-9.313 2.5l-2.67.723-2.568.683-2.364.635C233 215 233 215 230 215c-.772-11.393 2.583-22.243 10-31 11.768-12.528 32.74-18.455 48.828-10.469ZM616.25 190.879c3.537 2.266 3.927 6.542 4.984 10.383 2.332 11.383 1.26 23.018-4.66 33.187-5.057 7.07-11.672 11.687-19.949 14.301L594 249l-2.176.227c-7.75.458-13.75-1.77-19.68-6.801-3.851-4.08-6.23-8.871-7.144-14.426.434-2.27.434-2.27 1-4l5-1 .883 2.152c2.353 5.758 2.353 5.758 7.18 9.223 2.944-.202 2.944-.202 5.312-1.625 2.539-4.296 2.42-8.881 1.625-13.75a284.268 284.268 0 0 0-3-4c1.42-4.26 4.587-5.696 8.188-8.063 1.458-.973 2.915-1.948 4.37-2.925l2.242-1.503a187.813 187.813 0 0 0 6.235-4.49l1.9-1.411a269.28 269.28 0 0 0 3.546-2.698c2.268-1.68 3.904-2.877 6.769-3.031Z"/><path fill="#F2EEE6" d="m213.813 696.625 2.582-.148c3.825.768 5.174 2.521 7.605 5.523.491 2.706.677 4.783.631 7.48l.022 2.23c.017 2.421-.003 4.841-.024 7.263 0 1.687.003 3.374.007 5.061a1233.6 1233.6 0 0 1-.04 10.594c-.033 4.525-.027 9.05-.008 13.575.01 3.482.001 6.964-.014 10.446-.005 1.669-.005 3.337.002 5.006.005 2.332-.015 4.662-.043 6.994l.02 2.086c-.067 3.351-.347 5.006-2.461 7.662-3.864 2.961-7.34 3.114-12.092 2.603-2.81-1.222-4.412-2.12-6.115-4.667-1.215-3.202-1.155-5.986-1.176-9.409l-.02-2.135a963.827 963.827 0 0 1-.025-6.973l-.02-4.857c-.012-3.391-.016-6.783-.015-10.175 0-4.342-.027-8.684-.061-13.027-.022-3.343-.026-6.686-.025-10.03-.003-1.6-.012-3.2-.027-4.801-.02-2.24-.014-4.48-.002-6.72l-.008-3.86c.58-3.922 1.73-5.56 4.494-8.346 2.405-1.203 4.129-1.27 6.813-1.375Z"/><path fill="#F0EDE6" d="M304 343a514.664 514.664 0 0 1 3.727 17.832l.462 2.421.953 5.014c.485 2.557.976 5.113 1.467 7.669l.93 4.896.445 2.304c.634 3.376 1.016 6.414 1.016 9.864-2.998.821-5.998 1.63-9 2.438l-2.543.697c-5.158 1.38-10.144 2.33-15.457 2.865l-.595-2.807a144287.72 144287.72 0 0 0-4.118-19.423c-.309-1.456-.616-2.913-.922-4.37a542.505 542.505 0 0 0-2.3-10.47l-.858-3.766-.778-3.322c-.41-2.719-.341-4.283.571-6.842 3.749-.84 7.499-1.67 11.25-2.5l3.223-.723 3.105-.683c.943-.21 1.885-.42 2.857-.635C300 343 300 343 304 343Z"/><path fill="#F1EDE7" d="M498 203h2v2l1.647.8c4.997 2.548 9.787 5.454 14.603 8.325l3.414 1.938c7.894 4.759 7.894 4.759 9.128 8.049.156 6.79-3.069 12.87-7.355 17.888-4.017 3.296-7.365 3.416-12.437 3-5.872-1.95-9.522-4.942-13-10-1.45-4.49-1.223-9.078-1.25-13.75l-.063-2.633c-.035-5.905.924-10.21 3.313-15.617Z"/><path fill="#F1EDE5" d="M579 698c15 0 15 0 18.875 2.313 4.12 5.21 3.344 10.703 3.375 17.062l.063 3.156c.05 9.916.05 9.916-3.313 13.469-5 2-5 2-19 2v-38Z"/><path fill="#EBEBE7" d="M662 847c4.083 2.397 5.609 4.552 7 9 1.314 14.639 1.314 14.639-1.688 20.375-3.28 3.723-5.468 4.433-10.312 4.938-3.51-.366-5.256-1.103-8-3.313-2.473-4.524-2.333-8.98-2.313-14l-.048-2.406c-.005-5.751 1.046-9.108 5.048-13.407 3.404-1.747 6.616-1.849 10.313-1.187Z"/><path fill="#DFE3E1" d="M484 847c3.59 2.139 5.542 4.117 7 8 .245 2.839.37 5.537.375 8.375l.074 2.25c.028 5.25-.974 8.223-4.449 12.375-3.13 2.086-4.244 2.368-7.875 2.5l-2.555.156c-3.123-.797-4.674-2.219-6.602-4.78-1.804-3.495-1.609-6.96-1.468-10.813l-.008-2.342c.089-5.255.998-9.086 3.508-13.721 4.027-2.685 7.268-2.682 12-2Z"/><path fill="#EBEBE6" d="M435 847h7c.842 2.08 1.673 4.164 2.5 6.25l1.406 3.516C447 860 447 860 447 864h2l.34-2.105c.744-3.265 1.904-6.131 3.223-9.207l1.378-3.239c.35-.808.7-1.616 1.059-2.449h7v33h-6l-1-18-5 14h-4l-4-11-1 15h-6v-33Z"/><path fill="#EBEAE5" d="M371 847c3.586 1.637 4.793 2.69 7 6 .432 3.444.324 6.907.313 10.375l.048 2.867c.006 8.783.006 8.783-3.361 12.758-3.646 2.07-6.852 2.519-11 2-2.7-1.8-4.542-3.084-6-6-.268-3.598-.232-7.205-.25-10.813l-.063-3.025c-.049-9.27-.049-9.27 3.313-13.162 3.191-1.596 6.527-1.38 10-1Z"/><path fill="#EDEEEA" d="M785 847h7c.84 2.269 1.672 4.54 2.5 6.813l.723 1.947C796.27 858.65 797 860.9 797 864h2l.55-1.941c1.513-5.203 3.2-10.13 5.45-15.059h7v33h-6l-1-17-5 13h-4l-5-14-1 18h-5v-33Z"/><path fill="#F4F2ED" d="M703 847c13.73 0 13.73 0 18 3 1.353 2.706 1.206 4.919 1.25 7.938l.078 3.214C722 864 722 864 720.484 865.88L719 867l.621 2.047.817 2.703.808 2.672A140.549 140.549 0 0 1 723 881h-7l-1.023-2.59-1.352-3.347c-.44-1.103-.882-2.205-1.336-3.34-1-2.835-1-2.835-3.289-3.723v13h-6v-34Z"/><path fill="#EDECE6" d="M729 847h7l7 17 1-17h6v33h-7l-7-17-1 17h-6v-33Z"/><path fill="#EEEDE8" d="M131 847h6c1.148 2.437 2.293 4.874 3.438 7.313l.986 2.091c1.33 2.84 2.583 5.617 3.576 8.596l1-18h6v33h-7a889891679.489 889891679.489 0 0 1-4.59-9.863C139 867 139 867 138 864l-1 16h-6v-33Z"/><path fill="#EDECE7" d="M844 847h6c1.148 2.437 2.293 4.874 3.438 7.313l.986 2.091c1.33 2.84 2.583 5.617 3.576 8.596l1-18h6v33h-7c-.981-2.103-1.96-4.208-2.938-6.313l-1.652-3.55C852 867 852 867 851 864l-1 16h-6v-33Z"/><path fill="#EEEDE8" d="M496 847h6c1.148 2.27 2.294 4.54 3.438 6.813l.986 1.947c1.368 2.723 2.61 5.344 3.576 8.24l1-17h6v33h-7l-7-17-1 17h-6v-33ZM265 847h7l7 17 1-17h6v33h-6c-.963-1.872-1.92-3.748-2.875-5.625l-1.617-3.164C274 868 274 868 272 862l-1 18h-6v-33Z"/><path fill="#EBECE8" d="M763 847h8c1.75 6.563 1.75 6.563 2.288 8.587.945 3.551 1.897 7.1 2.868 10.643l.556 2.043c.515 1.894 1.034 3.787 1.554 5.68C779 877 779 877 779 880h-7l-1-5h-8l-2 5h-6a1766.31 1766.31 0 0 1 8-33Z"/><path fill="#DDDED9" d="M165 847h8c8 28.458 8 28.458 8 33h-7l-1-5-9-1-1 6h-6l2.875-12 .816-3.41A1514.04 1514.04 0 0 1 165 847Z"/><path fill="#ECECE5" d="M906 707h1c5.336 32.014 5.336 32.014 5.678 34.097.279 1.649.592 3.29.91 4.932.503 3.625.412 7.311.412 10.971h-17c1.74-11.36 3.614-22.685 5.625-34l.66-3.741.63-3.509.56-3.14C905 710 905 710 906 707Z"/><path fill="#EFEFEB" d="M110 847h7c4.381 10.516 6.62 21.892 9 33h-7l-1-6h-9l-1 6h-6c2.232-11.125 5.046-22.049 8-33Z"/><path fill="#ECEDE8" d="M309 847c2.788 2.992 3.896 4.799 4.25 8.875L313 858h-6l-2-5-5 1v19l5 1 2-6h-4v-6h10c.109 2.061.186 4.124.25 6.188l.14 3.48c-.47 4.02-1.47 5.573-4.39 8.332-4.115 1.531-7.897 1.446-11.938-.188-2.746-2.413-3.901-4.465-4.337-8.114a588.03 588.03 0 0 1-.038-8.135l-.048-2.854c-.007-8.885-.007-8.885 3.361-12.709 4.105-2.826 8.38-2.458 13-1Z"/><path fill="#EDEDE6" d="M758 707h1c1.004 5.995 2 11.99 2.99 17.987.338 2.038.678 4.076 1.02 6.113.491 2.936.976 5.873 1.459 8.81l.464 2.74.424 2.608c.125.748.25 1.497.377 2.268.338 3.141.266 6.315.266 9.474h-16c.575-10.057 2.068-19.643 4-29.5l.828-4.32c1.035-5.398 2.09-10.792 3.172-16.18Z"/><path fill="#F0EEE9" d="M402.063 845.938 405 846c-1.505 4.241-3.673 7.84-6.074 11.621-1.678 4.312-.246 7.617 1.484 11.738l1.652 3.391C405 878.805 405 878.805 405 881h-6l-6-12h-1l-1 12h-6v-34h6l1 10 1.277-2.152 1.66-2.785 1.653-2.778c2.022-3.277 2.022-3.277 5.473-3.347Z"/><path fill="#F5F4EF" d="M333 847c12 0 12 0 17 3 2.359 3.033 2.356 6.26 2.258 10.035-.379 2.883-1.466 4.709-3.258 6.965-3.089 2.06-3.71 2.239-7.188 2.125L338 869v11h-5v-33Z"/><path fill="#EEEEEA" d="M597.84 846.48c3.603.867 5.127 2.503 7.16 5.52.313 3.313.313 3.313 0 6h-6l-1-4h-5v19l5 1 2-6h-4v-5h10c.563 11.909.563 11.909-3 16-3.689 2.46-6.716 2.693-11 2-3.443-2.124-4.716-3.149-6-7-.305-3.432-.324-6.868-.375-10.313l-.113-2.841c-.057-4.463-.057-7.837 2.73-11.471 3.542-3.05 5.12-3.216 9.598-2.895Z"/><path fill="#EEECE7" d="M675 847h6l1 26 5 1c1.886-3.217 2.29-5.714 2.414-9.422l.117-3.105.094-3.223.117-3.27c.094-2.66.18-5.32.258-7.98h5c.1 4.057.172 8.113.22 12.17.02 1.38.047 2.759.082 4.138.048 1.986.069 3.972.089 5.958l.063 3.618c-.545 3.743-1.48 4.858-4.454 7.116-4.948 1.65-8.485 1.755-13.207-.598-2.407-2.12-2.78-3.311-3.274-6.532-.11-3.905-.042-7.78.106-11.683.03-1.374.057-2.748.082-4.123.07-3.356.17-6.71.293-10.064Z"/><path fill="#E5E7E3" d="M908 846c2.813 1.063 2.813 1.063 5 3 .813 3.688.813 3.688 1 7-2.375.188-2.375.188-5 0l-2-3h-4c.307 3.174.517 4.59 2.996 6.695l2.442 1.43c3.146 1.869 4.483 2.757 6.562 5.875.661 4.173.688 7.803-1.438 11.5-3.77 2.208-7.201 2.93-11.562 2.5-2.944-1.277-3.841-2.41-6-5-.875-3.813-.875-3.813-1-7 2.813-.313 2.813-.313 6 0 1.625 2.5 1.625 2.5 3 5h4c.408-2.323.408-2.323 0-5-2.108-2.277-2.108-2.277-4.875-4.188l-2.742-2.042L898 861c-2-2-2-2-2.375-5.875.07-3.183.228-3.934 2.25-6.563 3.553-2.612 5.708-2.908 10.125-2.562Z"/><path fill="#F1F1ED" d="M574 847c3.063 2.063 3.063 2.063 5 5 .313 3.813.313 3.813 0 7h-6l-1-5h-5v19l4 1 3-6h5c.322 4.1.414 6.344-1.813 9.875-2.822 2.742-4.677 3.068-8.562 3.5C565 881 565 881 562.301 879.165c-3.365-4.628-2.924-8.593-2.739-14.165l.018-2.984c.081-4.797.219-8.66 2.42-13.016 4.026-2.684 7.27-2.795 12-2Z"/><path fill="#EEEDE9" d="M411 847h17v6h-10v7h7v6h-7v9h10v5h-17v-33Z"/><path fill="#E6E7E2" d="M819 847h17v5h-10l1 7 7 1v6h-8v9h10v5h-17v-33Z"/><path fill="#F0EDE7" d="M229 847h17c-.405 7.301-2.276 12.575-5.563 19.063l-1.287 2.623A743.12 743.12 0 0 1 236 875h9v5h-17c1.125-7.875 1.125-7.875 3.066-11.84l1.221-2.53 1.275-2.567 1.288-2.65c1.041-2.142 2.094-4.278 3.15-6.413l-9-1v-6Z"/><path fill="#041E33" d="M410 847h1v34c-7.764-3.105-9.715-8.127-13.145-15.379-1.244-3.813-.424-5.494 1.336-8.98l1.372-2.391 1.378-2.422c.35-.603.7-1.206 1.059-1.828h6l1-3Z"/><path fill="#ECECE7" d="M201 847h7l5 12 5-12h6c-1.495 4.688-3.089 9.206-5.125 13.688-2.579 6.23-2.683 12.643-2.875 19.312h-6l.063-2.176c-.21-10.473-3.987-18.79-8.344-28.173C201 848 201 848 201 847Z"/><path fill="#E9E9E3" d="M371 847c3.586 1.637 4.793 2.69 7 6 .432 3.444.324 6.907.313 10.375l.048 2.867c.006 8.751.006 8.751-3.361 12.758h-1l-.375-2.25c-.462-2.677-.462-2.677-1.66-4.512-1.305-3.027-1.12-5.519-1.027-8.8.142-4.806.142-4.806-.938-9.438l-5 1-2 14h-1v-8h-2l-1 12h-1c-.088-3.229-.14-6.458-.188-9.688l-.076-2.763c-.093-8.558-.093-8.558 3.264-12.549 3.191-1.596 6.527-1.38 10-1Z"/><path fill="#1A4052" d="M385 640c18.593.06 37.186.138 55.78.236 8.632.045 17.265.084 25.897.11 7.523.023 15.046.057 22.569.103 3.985.024 7.97.042 11.954.049 3.748.006 7.497.026 11.245.056 1.378.01 2.755.013 4.133.011 1.877-.002 3.755.017 5.632.036l3.188.014c2.93.433 3.822 1.078 5.602 3.385-18.74.023-37.481.041-56.222.052-8.701.005-17.403.012-26.104.023-7.581.01-15.163.017-22.745.02-4.017 0-8.033.003-12.05.01-3.777.007-7.554.01-11.331.008-1.39 0-2.778.002-4.168.006-1.89.005-3.782.003-5.673.001l-3.212.003C387 644 387 644 385 643v-3Z"/><path fill="#F0F0EA" d="M485 849.563c2.967 2.132 3.287 3.873 4 7.437-.046 3.055-.227 6.037-1 9l-2 1c-.667 3.07-1 5.858-1 9v1l2 1c-3.13 2.086-4.244 2.368-7.875 2.5l-2.555.156c-3.123-.797-4.683-2.222-6.615-4.78-1.77-3.476-1.477-6.94-1.267-10.751l.068-2.375c.058-1.918.148-3.834.244-5.75h2v2h3l1-3 .184 3.465.253 4.472.12 2.288c-.117 3.694-.117 3.694 1.443 6.775 1.666.04 3.334.043 5 0 .029-3.27.047-6.542.063-9.813l.025-2.814.01-2.705.016-2.491c-.027-2.359-.027-2.359-1.114-5.177 2-1 2-1 4-.438Z"/><path fill="#031A2D" d="M585 852h1v24c-1.945-2.918-2.453-4.625-3-8l-10-1 .125 2.875C573 873 573 873 571 875c-3.536-.536-3.536-.536-5-2a61.468 61.468 0 0 1-.133-4.219l-.004-2.574.012-2.707-.012-2.707.004-2.574.004-2.377C566 854 566 854 567 853c2.5-.125 2.5-.125 5 0 1 1 1 1 1.063 3.563L573 859h9l1-3c.651-1.34 1.315-2.676 2-4Z"/><path fill="#EEEDE8" d="M435 847h7c.842 2.08 1.673 4.164 2.5 6.25l1.406 3.516C447 860 447 860 447 864l3-1-1 3c-2 .043-4 .04-6 0l-1-1-1 15h-6v-33Z"/><path fill="#F6F6F2" d="M623 847h18v6h-6v27h-6v-27h-6v-6Z"/><path fill="#DADCD8" d="M535 847h18v6h-6v27h-6v-27h-6v-6Z"/><path fill="#F0EEE8" d="M274 202c2.753 1.796 4.526 3.053 6 6 .43 3.872.317 5.525-1.875 8.813-2.717 2.796-3.521 3.13-7.438 3.5C267 220 267 220 264.063 218.563c-2.61-3.245-2.792-5.284-2.542-9.368 1.458-6.665 6.337-8.182 12.48-7.195Z"/><path fill="#E7E7E1" d="M871 847h19v6h-7v27h-5v-27h-7v-6Z"/><path fill="#F1F2F0" d="M186 847h6v28h9v5h-15v-33Z"/><path fill="#F0F1EE" d="M252 847h7v33h-7v-33Z"/><path fill="#061C2E" d="M427 840v3l-1 1 3 2 1 3 3-2v18l-5-1-2 3c-3.625.188-3.625.188-7 0v6h9v1h-10v-8h7v-6h-7v-7h10v-6l-9-1 4-2a89.782 89.782 0 0 0 4-4Z"/><path fill="#DFDED8" d="M338 853c3.72-.207 5.72.36 9 2l3-1c.054 1.583.093 3.166.125 4.75l.07 2.672c-.206 2.727-.722 4.291-2.195 6.578-3.43 1.715-7.217 1.054-11 1v10l-3-1h2l-.254-2.922-.308-3.828-.317-3.797c-.1-2.848-.027-4.796.879-7.453l1 1 1-8Z"/><path fill="#DBDED9" d="M118 851c2.117 3.676 3.022 7.6 4 11.688l.526 2.152A566.796 566.796 0 0 1 126 880h-7l-1-7-7-1c2-2 2-2 4.625-2.125L118 870l-1-2h-6l2-12 2 2 3-1v-6Z"/><path fill="#E2E3DF" d="M177 863c.672 2.27 1.337 4.54 2 6.813l1.125 3.832C181 877 181 877 181 880h-7l-1-5-9-1-1 6h-6l2-7c1.125 3.75 1.125 3.75 0 6h3l.375-3.063c.606-3.816 1.497-7.252 2.625-10.937l1 3h6l.375-1.938L173 864c2-1 2-1 4-1Z"/><path fill="#E7E8E4" d="M574 847c3.063 2.063 3.063 2.063 5 5 .313 3.813.313 3.813 0 7h-6l-1-5h-5l-1 17h-3v-16l-3-1c2.469-7.216 6.915-8.191 14-7Z"/><path fill="#103144" d="M769 627h1c1.036 5.05 1.103 9.874 1 15-2.6 1.3-4.453 1.107-7.366 1.082l-3.45-.021-3.804-.04-3.99-.028c-3.618-.027-7.236-.06-10.853-.094-3.779-.034-7.557-.062-11.335-.092-7.158-.056-14.315-.117-21.473-.18-8.147-.072-16.294-.138-24.442-.203-16.762-.135-33.525-.277-50.287-.424v-1h134v-11l1-3Z"/><path fill="#102D41" d="m427 863 6 2c.906 4.935 1.248 9.103 0 14-2.792 1.862-5.015 2.243-8.328 2.195l-2.422-.02-2.5-.05-2.547-.027c-2.068-.024-4.135-.06-6.203-.098v-1h17v-5h-10l1-2c.04-2 .043-4 0-6l7-1 1-3Z"/><path fill="#072236" d="M655 853c4.556.556 4.556.556 6 2a62.92 62.92 0 0 1 .098 4.254l-.01 2.588-.025 2.72-.014 2.733c-.012 2.235-.028 4.47-.049 6.705-2.313.688-2.313.688-5 1-1.645-1.234-1.645-1.234-3-3a73.942 73.942 0 0 1-.313-8.563l-.01-2.365c.056-5.805.056-5.805 2.323-8.072Z"/><path fill="#141E2D" d="M477 853c4.875.875 4.875.875 6 2 .098 1.33.13 2.666.133 4l.004 2.438-.012 2.562.012 2.563-.004 2.437-.004 2.25C483 873 483 873 482 874c-2.438.188-2.438.188-5 0-2.55-2.55-2.26-4.235-2.273-7.717l.023-2.22-.023-2.21c.014-3.811.112-5.611 2.273-8.853Z"/><path fill="#082337" d="M366 853c2.625.375 2.625.375 5 1 1.11 3.333 1.168 5.93 1.188 9.438l.042 3.433c-.22 2.984-.672 4.622-2.23 7.129-1.666.043-3.334.04-5 0-2.157-2.157-1.185-6.948-1.188-9.938l-.037-2.537-.005-2.427-.013-2.234C364 855 364 855 366 853Z"/><path fill="#D8DCD7" d="M766 856h2l1 4 1-4 4 1a526.056 526.056 0 0 1 1.625 6.75l.914 3.797c.462 3.461.424 4.657-1.539 7.453l-1.5-.938c-3.48-1.478-6.74-1.686-10.5-2.062l4-1v-2l-2-1c-.143-8.571-.143-8.571 1-12Z"/><path fill="#DBDFDE" d="M720 430h2c.223 12.52.156 24.639-2 37l-1-3h-2v3h-2v-2l-2-1 .805-2.965c2.793-10.34 5.345-20.32 6.195-31.035Z"/><path fill="#E1E3E0" d="M729 847h7c.625 1.813.625 1.813 1 4l-2 3-2-4v29l2 1h-6v-33Z"/><path fill="#CFD4D6" d="M435 847h7l-1 4v-3h-4l1 15 4-2-1 19h-6v-33Z"/><path fill="#F7F7F3" d="M820 855h1l1 12 3-1 1 9h10v5h-17l1-25Z"/><path fill="#E3E5E3" d="M496 847h6l1 4-3-1-1 29h2v-17h1v18h-6v-33Z"/><path fill="#F6F6ED" d="M283 737c2.14 2.14 2.593 3.308 3.508 6.133l.8 2.441.817 2.551.84 2.574c.684 2.099 1.362 4.199 2.035 6.301h-6l-1 45h-1v-65Z"/><path fill="#E3E5DF" d="M110 847c2.333-.042 4.667-.04 7 0 1 1 1 1 1.098 3.066l-.035 2.496-.028 2.504L118 857h-2l-1 4-1-3c-1.382 1.173-1.382 1.173-1.375 4.438L112 866l-3 2c-1.225-7.352-1.845-13.888 1-21Z"/><path fill="#E3E5E1" d="M763 847h8c1.591 4.177 2.213 7.532 2 12l-1-3h-2v7c-2-3-2-3-2-7l-3 1-1 5-4-1 3-14Z"/><path fill="#E9E9E3" d="M719.375 848.563C721 850 721 850 722 852.313c0 3.681-1.536 5.073-4 7.687l-1-4-2 6h-6v-9l3-1-2-2c6.274-2.172 6.274-2.172 9.375-1.438Z"/><path fill="#FCFDFA" d="M844 847h6l-1 3v-2h-3v18h2v-6h1v20h-5v-33Z"/><path fill="#D9DBD6" d="M624 848h16v3l-5 1-1 5h-2l.105 3.797c.029 1.65.056 3.302.082 4.953l.077 2.5.029 2.422.048 2.222C632 875 632 875 629 879v-26h-6l1-5Z"/><path fill="#F8F9F4" d="M537 847h16v6h-6v27h-6l1-26h1v25h3l-.496-2.879c-.67-4.686-.613-9.334-.567-14.058l.014-2.65c.012-2.138.03-4.276.049-6.413l-3-1 1-2 9 1v-3h-15v-1Z"/><path fill="#F6F6EC" d="M579 698h15l1 2h-14l.035 5.66.028 7.403.025 3.724c.016 5.84-.003 11.465-1.088 17.213h12l-2 2h-11v-38Z"/><path fill="#EBE9E0" d="M259 847v15h-1l-1 17h-3v-31c4-1 4-1 5-1Z"/><path fill="#FDFDFA" d="M873 847h17v6h-7v27h-5v-28h1v27h3v-28h6v-2h-14l-1-2Z"/><path fill="#E6E8E3" d="M648 852h6l-1 3c-.228 2.733-.417 5.45-.563 8.188l-.13 2.271c-.106 1.847-.207 3.694-.307 5.541h-1l-1 6 2 1h-3c-2.404-4.693-2.266-8.987-2.188-14.125l.002-2.457c.026-3.467.079-6.097 1.186-9.418Z"/><path fill="#D6D9D5" d="M170 849h2l2 4 1.063 1.875c1.258 2.854 1.873 4.985 1.937 8.125-2.125 2.875-2.125 2.875-5 5-2.813.313-2.813.313-5 0-.082-4.161.018-7.947 1-12l3-1-3-2 2-4Z"/><path fill="#F0EFEA" d="M659 847c3.26.272 4.73.75 7.156 3 2.495 4.06 2.297 7.156 2.094 11.813l-.055 2.388A375.97 375.97 0 0 1 668 870l-4-1-2 3 .07-3.29c.02-1.444.037-2.89.055-4.335l.05-2.16c.042-4.489-.5-7.983-2.175-12.215l-1-3Z"/><path fill="#081525" d="m300 853 3 1h-2l1 7h11v1h-10v6h4c.125 2.375.125 2.375 0 5l-2 2c-4.556-.556-4.556-.556-6-2a61.468 61.468 0 0 1-.133-4.219l-.004-2.574.012-2.707-.012-2.707.004-2.574.004-2.377C299 854 299 854 300 853Z"/><path fill="#EDE8E1" d="M187 848h3l1 27 9 1v3h-12l-1-31Z"/><path fill="#D6D9D6" d="M788 848c.34 3.645.67 7.291 1 10.938.095 1.021.19 2.043.29 3.095.537 6.019.81 11.925.71 17.967h-5v-31c2-1 2-1 3-1Z"/><path fill="#EDEDE8" d="M333 847c1.895-.082 3.791-.14 5.688-.188l3.199-.105c3.501.33 5.294 1.24 8.113 3.293 2.712 3.487 2.45 7.774 2 12-1 2.5-1 2.5-2 4-1.892-3.28-2.445-6.277-3-10l-1-3h-2l-1-2c-2.088-.613-2.088-.613-4.5-1-2.469-.438-2.469-.438-4.5-1l-1-2Z"/><path fill="#162B3D" d="M573 867h11l.75 3.188c1.12 3.74 2.239 6.177 5.25 8.812 3.297.995 6.587 1.564 10 2v1c-6.475.518-9.602-.109-15-4-2.153.308-2.153.308-4 1l-3-2 1-9h-5l-1 2v-3Z"/><path fill="#D3D8D8" d="M703 847h9v1h-7v31h3v-11h1v13h-6v-34Z"/><path fill="#F0EFEB" d="M411 847h17v6c-4.548.178-7.88-.002-12-2v2l-5-1v-5Z"/><path fill="#FBF9F4" d="M745 847h5v33h-6l4-2-1-29-1 19h-1v-21Z"/><path fill="#E3E5E1" d="M895 869h6c4 6.75 4 6.75 4 9l5 1c-2 2-2 2-4.75 2.438-4.46-.6-6.235-2.143-9.25-5.438-.875-3.813-.875-3.813-1-7Z"/><path fill="#DFE0DD" d="M146 847h6v33h-1l-1-31-1 14-1 5c-2-2-2-2-2.227-3.971.01-.786.02-1.571.032-2.38l.02-2.579.05-2.695.027-2.719c.024-2.219.057-4.437.098-6.656Z"/><path fill="#E5E6E2" d="M720 863c0 3 0 3-1 6 .756 2.483.756 2.483 1.938 5.063C723 878.822 723 878.822 723 881h-7a344.566 344.566 0 0 1-1.5-3.75l-.844-2.11C713 873 713 873 713 869l1.875-.25c2.299-.556 2.299-.556 3.313-2.75l.812-2 1-1Z"/><path fill="#F9F9F6" d="M675 847h6l.076 2.355c.116 3.507.238 7.013.361 10.52l.12 3.707.127 3.535.11 3.27c.04 2.594.04 2.594 1.206 4.613l-3-1c-1-3-1.116-4.974-1.098-8.105l.01-2.979.025-3.104.014-3.138c.012-2.558.028-5.116.049-7.674h-3v25h-1v-27Z"/><path fill="#020B1A" d="m859 845 7 1v35h-1v-34h-6v20c-2.446-2.446-2.568-3.604-3-7 .035-2.231.143-4.462.313-6.688l.238-3.449C857 847 857 847 859 845Z"/><path fill="#D1D5D2" d="M666 856h3c.753 17.432.753 17.432-4 23l-3 1-3-2 4-1-.563-1.938c-.59-4.135-.02-7.947.563-12.062h1v6h2v-13Z"/><path fill="#061223" d="m895 857 1.938 2.063c3.09 3.153 6.647 5.588 10.269 8.093C909 869 909 869 909.262 871.72L909 874l-5 1-1.125-2.438c-1.686-2.874-1.686-2.874-5.063-3.375L895 869l4-3c-1.152-2.468-2.048-4.048-4-6v-3Z"/><path fill="#EAEBE7" d="M165 847h8l1 8c-2-3-2-3-2-6l-3 4 3 2-2 4v-3h-2l-1 8h-1l-1-7h-1l1-10Z"/><path fill="#F3F3EF" d="m905 865 1.625.875c2.728 1.292 5.501 2.21 8.375 3.125.313 3.25.313 3.25 0 7-2.5 2.438-2.5 2.438-5 4l-5-2v-2l-2-1 5-1c.262-3.146.248-4.618-1.5-7.313L905 865Z"/><path fill="#DFE1DC" d="M604 850c1.354 2.709 1.065 5.01 1 8h-6v-5l-3.375-.938C592 851 592 851 590 850c5.217-3.478 8.945-3.9 14 0Z"/><path fill="#EBE8E1" d="M717 848v1l-3.438.938c-3.35.691-3.35.691-4.562 2.062a123.141 123.141 0 0 0-.563 5.563l-.253 3.066L708 863h-1l-1 15 2 1h-3v-31c7.875-1.125 7.875-1.125 12 0Z"/><path fill="#08192B" d="m592 855 2 1v8l2-1v5h4c.125 2.375.125 2.375 0 5l-2 2c-4.556-.556-4.556-.556-6-2a56.726 56.726 0 0 1-.098-4.035l.01-2.451.025-2.577.014-2.587c.012-2.117.03-4.233.049-6.35Z"/><path fill="#E3E4DF" d="M303 862h10l-2 2c-.243 2.899-.243 2.899-.125 6.125l.055 3.32L311 876c-1.938-.375-1.938-.375-4-1-1.333-2.667-.671-4.167 0-7h-4v-6Z"/><path fill="#F3F4EF" d="M305 863h8c.611 10.645.611 10.645-1.438 15.188-3.557 2.516-7.212 3.325-11.562 2.812-1.777-1.5-1.777-1.5-3-3l3.375.063c3.457.2 3.457.2 5.625-1.063v-3c2 1 2 1 3 2l2-12h-6v-1Z"/><path fill="#F4F5F0" d="M172 864h1v5l-5 1v1h6v3h-10l-1 6h-6l2-7c1.125 3.75 1.125 3.75 0 6h3l.375-3.063c.606-3.816 1.497-7.252 2.625-10.937l1 3h6v-4Z"/><path fill="#11283B" d="M366 855h5c1.424 2.848 1.17 5.328 1.188 8.5l.042 3.531C372 870 372 870 370 872c-1.217-2.434-1.32-4.418-1.563-7.125l-.253-2.758L368 860l-1 3h-2l1-8Z"/><path fill="#E2E3DE" d="M473 864h1v8l9 1-1 6c-5.625.25-5.625.25-9-2v-3h-2l.438-1.625c.657-2.774 1.114-5.56 1.562-8.375Z"/><path fill="#324B5B" d="M790 861c2 1 2 1 2.887 3.363l.8 2.95.825 2.925c.767 4.34-.082 6.118-2.512 9.762-1 1-1 1-4.063 1.063L785 881v-1h5v-19Z"/><path fill="#E7E8E4" d="M243 849c1.432 2.274 2.009 3.663 1.938 6.375-1.296 3.629-3.354 5.776-5.938 8.625l-1-2h-3c1.875-5.75 1.875-5.75 3-8l-7-1v-1h9l1 5 2-8Z"/><path fill="#06273D" d="m478 854 5 1-1 15h-1l-2-6-1 8h-1c-.027-2.813-.047-5.625-.063-8.438l-.025-2.431c-.009-2.044.036-4.088.088-6.131l1-1Z"/><path fill="#E7E5DE" d="M806 849h4v30h-2l-.148-3.578-.227-4.672c-.03-.777-.062-1.555-.094-2.355-.258-5.469-.258-5.469-2.531-10.395h4v-8l-3-1Z"/><path fill="#F3F3EF" d="M819 847h17v5c-1.767.276-3.539.52-5.313.75l-2.988.422C825 853 825 853 823.332 851.14L822 849l-3-2Z"/><path fill="#0B283C" d="m301 852 5 1 1 5 6 2v1l-12 1v-10Z"/><path fill="#E9E7E0" d="M543 853h2l1 26h-3v-26Z"/><path fill="#EEECE6" d="M721 855h1v9l-4 2c-1.71 1.541-1.71 1.541-3 3l-4-2v-3l2.438-.875c2.695-.858 2.695-.858 3.562-3.125h2l2-5Z"/><path fill="#0A1627" d="M709 853c2.375-.125 2.375-.125 5 0 2 2 2 2 2.188 5.063C716 861 716 861 715 862c-2 .04-4 .043-6 0v-9Z"/><path fill="#F1EEE7" d="M845 848h1v18h2v13h-3v-31Z"/><path fill="#131B28" d="M339 853c4.875.875 4.875.875 6 2 .125 3.5.125 3.5 0 7l-1 1h-5v-10Z"/><path fill="#F5F4F0" d="m360 852 4 2-1 15h-1v-8h-2l-1 12h-1v-20l2-1Z"/><path fill="#041427" d="M735 861c2.237 2.983 3.5 4.753 4.75 8.063l.797 2.035C741 873 741 873 740 876h-2l-.375 1.938L737 880l-2 1v-20Z"/><path fill="#E3E3DD" d="m440 861 2 1-1 18-4-1c-.081-2.438-.14-4.874-.188-7.313l-.076-2.091c-.074-5.153-.074-5.153 1.776-7.576L440 861Z"/><path fill="#D4D9D5" d="M566 850v21h-3v-16l-3-1 1-3c1.71-.588 3.185-1 5-1Z"/><path fill="#F2F1EC" d="M596 863h8l-2 12-3-2 1-5h-4v-5Z"/><path fill="#DEE0DD" d="M425 860v6h-7v8h-1a268.49 268.49 0 0 1-.688-5.313l-.386-2.988C416 863 416 863 417.28 861.156c2.541-1.71 4.74-1.355 7.719-1.156Z"/><path fill="#071727" d="M581 120c3.854-.03 7.708-.047 11.563-.063l3.29-.025c11.47-.035 11.47-.035 16.147 1.088l2 3-16-1v-1l-17-1v-1Z"/><path fill="#DBDCD6" d="M338 853h1v12l4 2-5 2-1 10-3-1h2l-.254-2.922-.308-3.828-.317-3.797c-.1-2.848-.027-4.796.879-7.453l1 1 1-8Z"/><path fill="#162232" d="M655 853c2.625.375 2.625.375 5 1l-1 2h-4l1 18-3-2a72.046 72.046 0 0 1-.313-8.5l-.01-2.379c.056-5.854.056-5.854 2.323-8.121Z"/><path fill="#F6F6F2" d="M241 859c1 3 1 3-.215 5.7l-1.722 2.987-1.715 3.012L236 873l-1-2c.938-2.625.938-2.625 2-5h-3l-.875 2.688A139.917 139.917 0 0 1 230 877c-.684-1.64-.684-1.64-1-4 1.215-2.797 1.215-2.797 2.938-5.75l1.714-2.984L235 862l4 1 2-4Z"/><path fill="#051123" d="M502 861c2.237 2.983 3.5 4.753 4.75 8.063l.797 2.035C508 873 508 873 507 876l-2-4-1 8-2-1v-18Z"/><path fill="#D7DCD8" d="M359 856h1v5h2l2-2v11l-5 2v-16Z"/><path fill="#E7E7E1" d="M819 848h13v1l-9 1 3 3c-.313 2.188-.313 2.188-1 4l-5-2-1-7Z"/><path fill="#DDDFD9" d="M488 857h1c.027 2.583.047 5.167.063 7.75l.025 2.21c.016 3.527-.135 6.65-1.088 10.04l-5 1 1.063-1.875L485 874l-1-2c.281-2.008.61-4.01 1-6h2l1-9Z"/><path fill="#EAEAE5" d="M574 869h4c-.615 6.523-.615 6.523-2.563 8.938L574 879l-3-1c0-3.694 1.282-5.778 3-9Z"/><path fill="#FBFCF8" d="M385 847h6v11l-2 1v-10h-3v17h-1v-19Z"/><path fill="#152D43" d="m456 487 3 1c.027 2.042.047 4.083.063 6.125l.035 3.445c-.093 3.243-.484 6.25-1.098 9.43l-4-1h2v-19Z"/><path fill="#F5F5F0" d="M377 855h1c.087 3.104.14 6.208.188 9.313l.076 2.67.029 2.568.048 2.364c-.423 2.584-1.356 3.448-3.341 5.085-.12-7.02-.158-14.054 1-21l1-1Z"/><path fill="#95A4A6" d="m416 851 5 1-3 1v5l-6-2v16h-1v-20l5 1v-2Z"/><path fill="#03182B" d="M482 858h1v15l-2 1-3-1v-10l3 2 1-7Z"/><path fill="#C1C6C5" d="M847 859c1.675.286 3.344.618 5 1l1 5-2-1-1 16h-1l-1-14h-2c-.043-2-.04-4 0-6l1-1Z"/><path fill="#F3F3EF" d="M873 847h17v6h-6l4-1v-3h-14l-1-2Z"/><path fill="#DFE3E1" d="M401 872c2.686 2.686 3.06 5.376 4 9-2.813.313-2.813.313-6 0-1.886-2.389-3-3.919-3-7h2v2h2l1-4Z"/><path fill="#EEEEE9" d="M909 847c1.938.563 1.938.563 4 2 .75 3.625.75 3.625 1 7h-5l-2-7h2v-2Z"/><path fill="#D6D9D4" d="M259 847v15h-1l-1-6-3 2v-10c4-1 4-1 5-1Z"/><path fill="#D9DFDE" d="M569 544h1v23c-2.108-4.215-2.439-6.847-2.75-11.5l-.297-3.969c.044-3.293.261-4.839 2.047-7.531Z"/><path fill="#E1E4E2" d="m757 870 2 4 5-1-3 7h-6l2-10Z"/><path fill="#E6E8E5" d="M104 869c2.252 2.688 3.882 4.646 5 8l-1 3h-6l2-11Z"/><path fill="#EBE9E3" d="M588 862c2 4 2 4 3 7.063.907 3.076.907 3.076 3 5.937l-1 2h-6l1-15Z"/><path fill="#EFF0EC" d="M576 850c-.875 3.875-.875 3.875-2 5h5v4h-6l-.813-2.875c-.937-3.378-.937-3.378-4.187-5.125 2.892-.826 4.887-1 8-1Z"/><path fill="#F4F4F0" d="M346 857h1c.201 3.625-.142 5.865-2 9l4 1c-3.089 2.06-3.71 2.239-7.188 2.125L338 869c0-3 0-3 1-6l3-.938 3-1.062c.969-2.032.969-2.032 1-4Z"/><path fill="#131F30" d="M766 856h2l2 11-5 1c-.143-8.571-.143-8.571 1-12Z"/><path fill="#0E1621" d="M903 852c1.675.286 3.344.618 5 1l-.188 2.875L908 859l3 2-1 2c-6.67-4.093-6.67-4.093-8-7.75 0-2.25 0-2.25 1-3.25Z"/><path fill="#071828" d="m794 852 1 2h2v2h2l1-2c1.158 4.054.837 6.218-1 10h-2a664.623 664.623 0 0 1-1.5-4.313l-.844-2.425C794 855 794 855 794 852Z"/><path fill="#0E60A5" d="M141 735c-1.78 6.75-3.704 13.406-6 20-1.237-3.711-.782-6.134-.25-10l.484-3.75c.856-3.63 1.698-6.25 5.766-6.25Z"/><path fill="#E3E5E2" d="M385 866h1l1 6 2-1v8h2v2h-6v-15Z"/><path fill="#101824" d="M113 856c2.863 2.863 2.994 4.659 3.063 8.688L116 868h-5l2-12Z"/><path fill="#0B1829" d="M168 856h2l2 12h-5c-.082-4.161.018-7.947 1-12Z"/><path fill="#CED5D2" d="M118 851c2.6 3.9 2.15 7.474 2 12h-2l-1 5h-1v-11h2v-6Z"/><path fill="#E1E2DD" d="M300 846c1.46.087 2.918.195 4.375.313l2.46.175C309 847 309 847 311 850c.125 3.188.125 3.188 0 6h-3l-.875-1.875c-1.062-2.258-1.062-2.258-3.125-4.125h3v-2l-7-1v-1Z"/><path fill="#EBEDEC" d="M460 462c1.642 3.284.266 6.656-.438 10.125l-.447 2.285c-.366 1.865-.74 3.727-1.115 5.59l-4-4c1.492-4.972 3.605-9.418 6-14Z"/><path fill="#E2E4E0" d="m562 874 1 4 1-2h5l.375 1.938L570 880l2 1c-6.4.37-6.4.37-9.438-1.5L561 878l1-4Z"/><path fill="#082438" d="M567 863h1l1 5 3-1v7l-4 1c-2.236-3.353-2.173-3.907-1.625-7.688l.336-2.449L567 863Z"/><path fill="#081728" d="M805 860h1l-1 21h-1l-.375-3.438L803 874l-2-1 1.438-4.813.808-2.707c.558-1.835 1.147-3.66 1.754-5.48Z"/><path fill="#FBFAF7" d="M455 485h1v21h-8c3.75-2 3.75-2 6-2l1-19Z"/><path fill="#E1E4E1" d="m461 215 2 1c.081 1.75.14 3.5.188 5.25l.105 2.953c-.332 3.172-1.18 4.467-3.293 6.797l-2-1 1-1c.397-2.347.744-4.703 1.063-7.063l.535-3.91L461 215Z"/><path fill="#D9DEDE" d="M410 172h1c1.254 5.04 2.393 9.763 2 15-1 1-1 1-4.063 1.063L406 188l-1-2h6l-.473-2.3-.59-3.012-.597-2.989C409 175 409 175 410 172Z"/><path fill="#051021" d="M392 867c2 2 2 2 2.012 4.531l-.325 2.969-.3 2.969C393 880 393 880 392 882h-7v-1h6l-.035-2.555c-.01-1.095-.018-2.191-.027-3.32l-.036-3.305C391 869 391 869 392 867Z"/><path fill="#0A1C2D" d="M272 862c1.78 2.67 2.972 5.05 4.188 8l1.105 2.625C278 875 278 875 277 878l-1-4-4-1v-11Z"/><path fill="#024F9F" d="M384 767h1c1.71 8.57 1.71 8.57.023 11.965-1.783 2.133-3.526 3.787-6.023 5.035-2.04.07-4.083.084-6.125.063l-3.32-.028L367 784v-1l2.266-.078c6.077-.212 6.077-.212 11.359-2.86 2.017-3.025 2.578-5.094 2.938-8.687l.253-2.477L384 767Z"/><path fill="#E1E4E2" d="M391 343h1c.532 2.415 1.05 4.831 1.563 7.25l.458 2.066c.731 3.502 1.301 6.287-.021 9.684h-2l-.184-2.23-.253-2.957-.247-2.918c-.26-2.876-.26-2.876-.914-5.57C390 346 390 346 391 343Z"/><path fill="#F7F7F2" d="M233 847h13v6h-2v-4h-12l1-2Z"/><path fill="#0A1728" d="m563 498 2 3h-3l-.313 2.313c-.77 3.012-1.558 3.558-3.687 5.687-1.196 2.032-1.196 2.032-2.188 4.188l-1.042 2.167L554 517c-1-3-1-3 .074-5.523 5.399-9.543 5.399-9.543 8.926-13.477Z"/><path fill="#DEDFDA" d="m108 853 3 1 1 12-3 2c-.847-5.08-1.09-9.848-1-15Z"/><path fill="#E3E5E1" d="M333 847h12l1 3c-1.603.081-3.208.14-4.813.188l-2.707.105C336 850 336 850 333 847Z"/><path fill="#E5E8E7" d="M186 263c2.743 2.743 2.853 5.16 3.625 8.938.26 1.246.52 2.493.79 3.777C191 279 191 279 191 282l-3 1-2-20Z"/><path fill="#E3E2DC" d="M825 876c2.383-.293 2.383-.293 5.125-.188l2.758.083L835 876v3h-12l2-3Z"/><path fill="#F5F5F0" d="M373 848c-.523 2.763-1.109 5.326-2 8l-1-2c-2.527-.656-2.527-.656-5-1l1-2h2v-2l-3-1c2.862-1.43 4.934-.6 8 0Z"/><path fill="#E0E2DF" d="M428 847v6h-2v-2h-6v-3c2.709-1.354 5.01-1.065 8-1Z"/><path fill="#DFE2E0" d="M175 209h1c.504 2.27 1.003 4.541 1.5 6.813l.844 3.832C179 223 179 223 179 226h-3l-.184-1.828-.254-2.422c-.08-.789-.162-1.578-.246-2.39-.265-2.344-.265-2.344-.879-4.516-.532-2.244-.135-3.674.563-5.844Z"/><path fill="#AEBBBA" d="m483 852-2 2h-4l-1 2h-5l1-4c3.982-1.054 6.982-.841 11 0Z"/><path fill="#DBDFDB" d="m770 848 2 1c.414 2.285.414 2.285.625 5.063l.227 2.785L773 859l-1-3c-2-1.209-2-1.209-4-2v-5l2-1Z"/><path fill="#E5E4DF" d="m437 848 6 1c.625 2.375.625 2.375 1 5l-2 2-1-4h-2l-1 7h-1v-11Z"/><path fill="#EDEDEA" d="M125 875c.625 2.563.625 2.563 1 5h-7v-5c3.75-1.125 3.75-1.125 6 0Z"/><path fill="#F6F3EE" d="M373 851c2.681 2.681 2.299 4.141 2.313 7.875l.05 3.18c-.398 3.232-1.193 4.575-3.363 6.945-.027-1.958-.046-3.917-.063-5.875l-.035-3.305C372 857 372 857 373 855v-4Z"/><path fill="#EBE9E3" d="m136 847 2 1v6l-5 2v-8l3-1Z"/><path fill="#E0E2DF" d="M303 491v2l-12 2v-3c8.036-2.277 8.036-2.277 12-1Z"/><path fill="#E0E1DD" d="M795 858c2 3 2 3 2 6h2l-1 6-3-1a88.406 88.406 0 0 1-1-5l1-1c.04-1.666.043-3.334 0-5Z"/><path fill="#06253B" d="m419 854 8 1c-.563 1.938-.563 1.938-2 4-3.625.75-3.625.75-7 1l1-6Z"/><path fill="#081121" d="M366 853c2.625.375 2.625.375 5 1l-2 2-3-1-1 16h-1c-.054-2.625-.094-5.25-.125-7.875l-.05-2.262c-.018-1.955.072-3.91.175-5.863l2-2Z"/><path fill="#DAE5E2" d="M579 756h8l2 5h-2v-2c-4.14-.21-4.14-.21-8 1v-4Z"/><path fill="#F4F2EE" d="m454 476 3 1v10l-2-4h-2c-.043-2-.04-4 0-6l1-1Z"/><path fill="#071628" d="M466 242c1 3 1 3 .063 5.188L465 249h-3l-3 9c-1-4-1-4 .145-6.508l1.668-2.617 1.644-2.633C464 244 464 244 466 242Z"/><path fill="#E0E3DF" d="M572 847c3.653 1.25 4.78 1.671 7 5v3h-5l1-4-3-1v-3Z"/><path fill="#000918" d="M427 840v3l-1 1 3 2c.188 3.625.188 3.625 0 7h-1v-6l-9-1 4-2a89.782 89.782 0 0 0 4-4Z"/><path fill="#08192B" d="m316 483 2 4c-1.561.34-3.124.671-4.688 1l-2.636.563c-2.613.427-5.034.513-7.676.437 2.88-1.467 5.793-2.82 8.75-4.125l2.422-1.07L316 483Z"/><path fill="#D7DAD9" d="m281 226 3 1c-1.813 2.625-1.813 2.625-5 5-3.804-.155-7.338-.993-11-2v-1l2.59-.402 3.348-.536 3.34-.527c2.626-.253 2.626-.253 3.722-1.535Z"/><path fill="#E2E4E4" d="m265 171 1 3-1.758.184c-4.443.476-8.841 1.026-13.242 1.816 4.324-3.659 8.35-5 14-5Z"/><path fill="#092A40" d="m153 872 1 2h2l1-2 1 7-5 1v-8Z"/><path fill="#070C18" d="M455 860h1v19h-1l-.184-2.047-.253-2.703-.247-2.672c-.246-2.53-.246-2.53-.91-4.734-.594-2.696.445-4.411 1.594-6.844Z"/><path fill="#BCC5C1" d="m770 856 4 1-2 10-3-2 1-9Z"/><path fill="#E3E2DC" d="m401 848 1 2-1.563 1.813L399 854l1 3-2 2-.875-1.875c-1.062-2.258-1.062-2.258-3.125-4.125h3l.875-1.938C399 849 399 849 401 848Z"/><path fill="#102A3F" d="M458 181h3c1.429 8.571 1.429 8.571-1 12-1.292-4.12-2.263-7.668-2-12Z"/><path fill="#E5E6E2" d="M162 862c1.945 2.918 2.453 4.625 3 8l-2 1-2-1-1 2c.14-1.48.288-2.959.438-4.438.08-.823.162-1.647.246-2.496C161 863 161 863 162 862Z"/><path fill="#E2E5E1" d="M853 855c1.777 2.666 2.875 5.028 4 8l-4 4c-1-2-1-2-.5-4.438.739-2.666.739-2.666-.5-5.562l1-2Z"/><path fill="#F2F3EF" d="M601 849c3 1 3 1 4 3 .04 2 .043 4 0 6h-5l.5-2.813c.577-3.143.577-3.143.5-6.187Z"/><path fill="#E4E6E3" d="M654 849c1.875.25 1.875.25 4 1 1.25 2.063 1.25 2.063 2 4-1.176-.03-1.176-.03-2.375-.063-2.606-.124-2.606-.124-4.625 1.063l-1-2h-3v-2h5v-2Z"/><path fill="#D4E5E7" d="M143 727h1l-1 12h-2l-1 2c.412-4.97.796-9.445 3-14Z"/><path fill="#E4E6E4" d="M821 869h1v11h-3c-.286-7.429-.286-7.429 2-11Z"/><path fill="#A1AEB1" d="m440 861 2 1-1 18h-1l-2-10h1l1-9Z"/><path fill="#BAC3C0" d="M175 857h1l1 6c-3.75 3-3.75 3-6 3l1-6 3-1v-2Z"/><path fill="#EDEFE9" d="M110 848h5l-4 1 3 1c.688 2.063.688 2.063 1 4l-6 1 1-7Z"/><path fill="#0F2033" d="M543 845c1.812-.027 3.625-.046 5.438-.063l3.058-.035C554 845 554 845 555 846c.04 2.333.042 4.667 0 7h-2l-1-6-9-1v-1Z"/><path fill="#132D3F" d="m809 456 3 1c.37 6.4.37 6.4-1.5 9.438L809 468c-.928-4.333-.928-7.667 0-12Z"/><path fill="#E0E2DE" d="M718 444c2.348 3.522 2.377 5.508 2.625 9.688l.227 3.574L721 460l-.926-1.89c-1.012-2.098-1.012-2.098-2.261-3.86-1.282-3.548-.428-6.56.187-10.25Z"/><path fill="#F3F2ED" d="m694 875-1 3h-10v-3c4.018-.841 7.018-1.054 11 0Z"/><path fill="#E5E5DD" d="M359 856h1v5h2v8h-2c-.872-2.995-1.108-5.636-1.063-8.75l.028-2.422L359 856Z"/><path fill="#2F4A5B" d="M914 853c1.125 3.75 1.125 3.75 0 6h-3l-1 2-3-2 1-5 1 2h5v-3Z"/><path fill="#111E2D" d="M208 849h2l1 5 4 1-2 5c-2.228-2.228-2.692-3.658-3.625-6.625-.26-.817-.52-1.635-.79-2.477L208 849Z"/><path fill="#DEE3E2" d="M421 840h6c-1.75 2.5-1.75 2.5-4 5h-4l2-5Z"/><path fill="#E3E3DE" d="M343 448v3l-9 1 1-3c2.763-.597 5.16-1 8-1Zm-12 4 3 1Z"/><path fill="#DDE0E0" d="M353 373h1l1 10-4 1-1-2h2l1-9Z"/><path fill="#E7E7E3" d="M828 294c1.312 3.937.243 6.125-1 10l-2-3c1.405-5.405 1.405-5.405 3-7Zm-4 13 1 4Z"/><path fill="#071E31" d="M226 278c2.026 3.35 2.217 5.87 2.125 9.75l-.055 2.984L228 293c-2.78-4.17-3.3-7.987-2.563-12.938L226 278Z"/><path fill="#E3E5E2" d="M522 220c2.169.506 4 1 6 2v8h-3l-.586-6.055c-.278-2.172-.278-2.172-2.414-3.945Z"/><path fill="#1B384A" d="M519 873h1c.293 6.055.293 6.055 0 8l-3 2v-2h-6v-1h6l-.125-2.375C517 875 517 875 519 873Z"/><path fill="#192A3B" d="M681 870h3v2h5l-2 3-5-1-1-4Z"/><path fill="#E1E4E0" d="M774 864c2.408 2.408 2.681 3.65 3 7-.938 2.313-.938 2.313-2 4l-4-2 3-2c.25-3.584.25-3.584 0-7Z"/><path fill="#E6E7E3" d="m910 863 3 1c1.188 2.563 1.188 2.563 2 5-3 0-3 0-6-1l1-5Z"/><path fill="#F3F3EF" d="M765 855h1l-1 9-5 1 1-4h2l2-6Z"/><path fill="#020A1E" d="M144 847h1v17c-3-4-3-4-2.855-7.234l.667-3.516.645-3.547L144 847Z"/><path fill="#BFC8C4" d="m819 850 1 2 2 1 1-1 3 1-1 4c-2.438-.688-2.438-.688-5-2-.813-2.625-.813-2.625-1-5Z"/><path fill="#D9DED9" d="M471 850h5l-1 2-3 1-1 3h3v3h-3v-2l-2-1 2-6Z"/><path fill="#DEE4E1" d="M907 712h1l1 9-3 1-1 2 2-12Z"/><path fill="#DEE1E0" d="M401 312h3l-1 5h2l-1 8h-1l-2-13Z"/><path fill="#091B2D" d="M214 295c2.59 2.59 2.374 4.027 2.625 7.625l.227 3.04L217 308h-2c-.17-1.416-.335-2.833-.5-4.25l-.281-2.39C214 299 214 299 214 295Z"/><path fill="#091D30" d="M527 231h1c.75 2.75.75 2.75 1 6-1.938 2.375-1.938 2.375-4 4l-3-1 1.375-1.688c1.662-2.365 2.646-4.602 3.625-7.312Z"/><path fill="#E4E4DF" d="M447 868c1.675.286 3.344.618 5 1l-3 6h-2a128.624 128.624 0 0 1-1-6l1-1Z"/><path fill="#06283E" d="m340 855 4 1v5h-4v-6Z"/><path fill="#E6E6E2" d="m372 443-1 2c-2.649.594-5.292.742-8 1v-3c3.378-.845 5.675-1.108 9 0Z"/><path fill="#EFF2F1" d="M635 269c1 3 1 3 .223 5.043l-1.16 2.144-1.153 2.168L632 280c-1.102-3.742-1.102-3.742-.188-6.063 1.024-1.67 2.101-3.307 3.188-4.937Z"/><path fill="#0B1627" d="m455 233 1 2c-.777 1.727-.777 1.727-1.938 3.625L452 242c-2.152-3.228-2.2-4.284-2-8l1 2h3l1-3Z"/><path fill="#E6E8E5" d="M407 159c3.006 3.006 2.596 5.824 3 10h-3c-1.125-7.75-1.125-7.75 0-10Z"/><path fill="#E5E6E2" d="M385 632c0 4.39-2.128 5.77-5 9l-2-3 7-6Z"/><path fill="#041426" d="m418 244 1 2h2v11c-1.737-3.474-2.3-5.076-2.625-8.75l-.227-2.422L418 244Z"/><path fill="#F4F3ED" d="M371 872v6h-6c1.245-3.736 2.634-4.188 6-6Z"/><path fill="#07263D" d="M905 866c3 3.625 3 3.625 3 7l-5-1v-3h2v-3Z"/><path fill="#EEEDE8" d="M416 854c1.414 2.639 2.372 5.071 3 8l-2 1-3-1v-3h2v-5Z"/><path fill="#899C9C" d="M648 852h6l-2 5-4-1-1 2 1-6Z"/><path fill="#092033" d="M410 596h9l1 2-10 1v-3Z"/><path fill="#E6E6E1" d="M717 460c1.563 1.25 1.563 1.25 3 3-.313 2.188-.313 2.188-1 4v-3h-2v3h-2v-2l-2-1 4-4Z"/><path fill="#E4E5E1" d="M229 352c1.908 3.175 2.16 5.106 1.625 8.75l-.336 2.422L230 365h-1c-1.286-8.429-1.286-8.429 0-13Z"/><path fill="#E4E7E5" d="M428 305c3.006 3.006 2.596 5.824 3 10h-3v-10Z"/><path fill="#E1E1E1" d="m278 207 2 1c.125 2.875.125 2.875 0 6l-2 2c-1-1-1-1-1.125-3.938C277 209 277 209 278 207Z"/><path fill="#E7E7E0" d="m911 872 1 2h3v2c-2.313 1.125-2.313 1.125-5 2l-3-2 4-4Z"/><path fill="#06263C" d="m301 868 5 1-1 4h-4v-5Z"/><path fill="#0C63A7" d="M869 781c2 3 2 3 1.625 6.188L870 790h-2c-.125-6.75-.125-6.75 1-9Z"/><path fill="#E6E6E0" d="m452 480 1 3h2v11h-1v-9h-3l1-5Z"/><path fill="#E5E6E3" d="M294 469v2l-7 1v-3c3.133-1.044 3.99-.934 7 0Z"/><path fill="#E4E6E3" d="M235 335c3.006 3.006 2.596 5.824 3 10h-2c-1.804-2.76-2.013-3.89-1.625-7.25L235 335Z"/><path fill="#E4E7E5" d="M193 296c3.006 3.006 2.596 5.824 3 10h-3v-10Z"/><path fill="#132E42" d="m262 225 11 2v1c-1.456.222-2.915.427-4.375.625l-2.46.352L264 229l-2-2v-2Z"/><path fill="#112130" d="m527 84 3 1v7l-2-1v-5l-4 1 3-3Z"/><path fill="#08101E" d="M791 863c2.762 2.762 2.579 5.207 3 9l-3 1v-10Z"/><path fill="#05273D" d="m712 854 2 1v6h-3c-.043-2-.04-4 0-6l1-1Z"/><path fill="#052034" d="M904 853h4l-1 5-3-1-1-3 1-1Z"/><path fill="#0C2032" d="M853 853h4v7h-2l-2-7Z"/><path fill="#E5E9E6" d="M247 778c1.62 2.572 2.044 3.677 1.625 6.75L248 787l-3-1 2-8Z"/><path fill="#E7EAE9" d="m230 410 2 2-1 3c-3.063 1.188-3.063 1.188-6 2 3.875-5.875 3.875-5.875 5-7Z"/><path fill="#081526" d="m241 356 3 1-.188 2.875L244 363l3 2-5-1-1-8Z"/><path fill="#102A3D" d="M224 349h3v7l-2 1c-1.354-2.709-1.065-5.01-1-8Z"/><path fill="#E1E3E0" d="M216 291c2.236 3.353 2.173 3.907 1.625 7.688l-.336 2.449L217 303h-1c-1.286-8.571-1.286-8.571 0-12Z"/><path fill="#182F41" d="M301 282v2h2v3l-6-1v-3c2-1 2-1 4-1Z"/><path fill="#E7E7E4" d="m629 275 3 1a108.817 108.817 0 0 1-1 7l-2 1v-9Z"/><path fill="#E6E6E2" d="M530 100c2.43 3.644 2.162 5.712 2 10l-3-1c-.125-6.75-.125-6.75 1-9Z"/><path fill="#DCE0DC" d="m759 863 4 2v3l-5 1 1-6Z"/><path fill="#D3D8D4" d="M175 863h2l1 5h-5l2-5Z"/><path fill="#E0E2DF" d="M141 862h3l1 5h-6l2-5Z"/><path fill="#0C63A8" d="M935 745c2 2 2 2 2.125 5.125L937 753l-3-1 1-7Z"/><path fill="#0B5FA3" d="m284 735 3 2c.408 2.712.133 5.244 0 8-2.296-3.445-2.54-5.938-3-10Z"/><path fill="#E7E5E1" d="M541 521c2.786 4.18 1.796 6.147 1 11h-1c-1.286-7.429-1.286-7.429 0-11Z"/><path fill="#E4E5E1" d="m402 446-1 2c-3.063.625-3.063.625-6 1v-3c3.133-1.044 3.99-.934 7 0Z"/><path fill="#0E2E44" d="m312.75 392.75 2.25.25-2 3h-2v2l-5-1c3.323-3.938 3.323-3.938 6.75-4.25Z"/><path fill="#132B3E" d="M486 333h3l1 7-2 1c-1.765-3.088-2-4.233-2-8Z"/><path fill="#0C1423" d="m497 315 4 2h-2l1.563 2.875L502 323l-1 2c-4-6.625-4-6.625-4-10Z"/><path fill="#132B3C" d="M394 288h3v8h-2l-1-8Z"/><path fill="#F4F4EF" d="M566 227h3c.688 1.813.688 1.813 1 4-1.438 1.75-1.438 1.75-3 3l-1-7Z"/><path fill="#DFDFDA" d="m572 873 4 4-2 2-3-1c0-3 0-3 1-5Z"/><path fill="#F3F1EC" d="M741 866h2v2l2 1c-1.875 1.063-1.875 1.063-4 2l-2-1c1-3 1-3 2-4Z"/><path fill="#DEE0DD" d="M741 861c2 3 2 3 2 5h-2l-1 2h-2l1-4h2v-3Z"/><path fill="#182F42" d="M114 858c2 3 2 3 1.625 5.688L115 866h-2l1-8Z"/><path fill="#DFE2DF" d="M455 472h2l1 8c-2.063-1.75-2.063-1.75-4-4 .25-2.25.25-2.25 1-4Z"/><path fill="#F1F3F0" d="M311 207v7l-2 1v-6l-2-1c2-1 2-1 4-1Z"/><path fill="#132D3F" d="M398 186h5v3l-5 2-1-3 1-2Z"/></svg>